<svg width="156" height="39" viewBox="0 0 156 39" fill="none" xmlns="http://www.w3.org/2000/svg">
<path d="M17.109 7.31782L31.5941 32.5788L23.9666 28.7203L16.9875 16.5489L6.67881 34.605L0.218944 38.0915L17.109 7.31782Z" fill="#14A2F1"/>
<path d="M20.9562 0.305953L42.7059 38.2368L35.8771 34.7323L28.5974 22.0367L27.0156 22.9437L24.901 19.2558L26.4827 18.3488L18.6398 4.67084L20.9562 0.305953Z" fill="#282A3A"/>
<path d="M19.4466 22.426L21.5439 26.0817L12.163 31.4598L16.0075 24.3977L19.4466 22.426Z" fill="#282A3A"/>
<path d="M55.5072 24.4814L63.4272 7.56141H67.0272L74.9952 24.4814H70.5552L68.5152 19.8254L70.2192 21.0494H60.2832L61.9632 19.8254L59.9472 24.4814H55.5072ZM65.2032 12.1214L62.3952 18.8174L61.7232 17.6894H68.7552L68.1552 18.8174L65.3232 12.1214H65.2032ZM76.0405 24.4814V7.56141H84.3445C86.2965 7.56141 87.7685 8.04141 88.7605 9.00141C89.7525 9.94541 90.2485 11.2334 90.2485 12.8654C90.2485 14.4814 89.7525 15.7694 88.7605 16.7294C87.7685 17.6894 86.2965 18.1694 84.3445 18.1694H80.4805V24.4814H76.0405ZM80.4805 14.7614H83.7685C84.5205 14.7614 85.0805 14.6014 85.4485 14.2814C85.8165 13.9454 86.0005 13.4734 86.0005 12.8654C86.0005 12.2574 85.8165 11.7854 85.4485 11.4494C85.0805 11.1134 84.5205 10.9454 83.7685 10.9454H80.4805V14.7614ZM92.4467 24.4814V7.56141H100.751C102.703 7.56141 104.175 8.04141 105.167 9.00141C106.159 9.94541 106.655 11.2334 106.655 12.8654C106.655 14.4814 106.159 15.7694 105.167 16.7294C104.175 17.6894 102.703 18.1694 100.751 18.1694H96.8867V24.4814H92.4467ZM96.8867 14.7614H100.175C100.927 14.7614 101.487 14.6014 101.855 14.2814C102.223 13.9454 102.407 13.4734 102.407 12.8654C102.407 12.2574 102.223 11.7854 101.855 11.4494C101.487 11.1134 100.927 10.9454 100.175 10.9454H96.8867V14.7614Z" fill="#14A2F1"/>
<path d="M112.342 24.4814V11.1374H107.206V7.56141H121.918V11.1374H116.782V24.4814H112.342ZM123.783 24.4814V7.56141H135.927V10.9454H128.031V14.1854H135.351V17.5934H128.031V21.0734H135.927V24.4814H123.783ZM135.965 24.4814L143.165 14.9534V16.9454L136.109 7.56141H141.269L145.637 13.7294H144.221L148.589 7.56141H153.773L146.693 16.9454V14.9534L153.941 24.4814H148.757L144.221 18.1694H145.637L141.101 24.4814H135.965Z" fill="#282A3A"/>
<path d="M58.3086 36.5614C57.5553 36.5614 56.9586 36.3914 56.5186 36.0514C56.0853 35.7114 55.8686 35.2581 55.8686 34.6914V34.3814C55.8686 34.3147 55.902 34.2814 55.9686 34.2814H56.4586C56.5253 34.2814 56.5586 34.3147 56.5586 34.3814V34.6514C56.5586 35.0381 56.7186 35.3514 57.0386 35.5914C57.3586 35.8247 57.802 35.9414 58.3686 35.9414C58.882 35.9414 59.272 35.8347 59.5386 35.6214C59.8053 35.4014 59.9386 35.1114 59.9386 34.7514C59.9386 34.5181 59.8753 34.3181 59.7486 34.1514C59.6286 33.9847 59.4386 33.8281 59.1786 33.6814C58.9253 33.5347 58.5653 33.3647 58.0986 33.1714C57.5986 32.9714 57.2086 32.7981 56.9286 32.6514C56.6553 32.4981 56.432 32.3047 56.2586 32.0714C56.092 31.8314 56.0086 31.5314 56.0086 31.1714C56.0086 30.6114 56.202 30.1781 56.5886 29.8714C56.982 29.5581 57.5186 29.4014 58.1986 29.4014C58.9386 29.4014 59.522 29.5747 59.9486 29.9214C60.3753 30.2681 60.5886 30.7281 60.5886 31.3014V31.5214C60.5886 31.5881 60.5553 31.6214 60.4886 31.6214H59.9886C59.922 31.6214 59.8886 31.5881 59.8886 31.5214V31.3414C59.8886 30.9547 59.7353 30.6381 59.4286 30.3914C59.1286 30.1447 58.7086 30.0214 58.1686 30.0214C57.6953 30.0214 57.332 30.1181 57.0786 30.3114C56.8253 30.5047 56.6986 30.7847 56.6986 31.1514C56.6986 31.3914 56.7586 31.5914 56.8786 31.7514C57.0053 31.9047 57.182 32.0414 57.4086 32.1614C57.642 32.2747 57.9986 32.4247 58.4786 32.6114C58.9653 32.8114 59.3553 32.9981 59.6486 33.1714C59.9486 33.3447 60.1886 33.5581 60.3686 33.8114C60.5553 34.0581 60.6486 34.3614 60.6486 34.7214C60.6486 35.2814 60.442 35.7281 60.0286 36.0614C59.6153 36.3947 59.042 36.5614 58.3086 36.5614ZM64.9185 36.5614C64.4385 36.5614 64.0251 36.4381 63.6785 36.1914C63.3318 35.9447 63.0918 35.6047 62.9585 35.1714C62.8651 34.8647 62.8185 34.4547 62.8185 33.9414C62.8185 33.4281 62.8651 33.0214 62.9585 32.7214C63.0851 32.2947 63.3218 31.9581 63.6685 31.7114C64.0151 31.4647 64.4351 31.3414 64.9285 31.3414C65.4018 31.3414 65.8085 31.4647 66.1485 31.7114C66.4951 31.9581 66.7318 32.2914 66.8585 32.7114C66.9518 32.9981 66.9985 33.4081 66.9985 33.9414C66.9985 34.4814 66.9518 34.8914 66.8585 35.1714C66.7318 35.6047 66.4951 35.9447 66.1485 36.1914C65.8085 36.4381 65.3985 36.5614 64.9185 36.5614ZM64.9185 35.9414C65.2385 35.9414 65.5118 35.8547 65.7385 35.6814C65.9651 35.5014 66.1185 35.2614 66.1985 34.9614C66.2585 34.7214 66.2885 34.3847 66.2885 33.9514C66.2885 33.5114 66.2618 33.1747 66.2085 32.9414C66.1285 32.6414 65.9718 32.4047 65.7385 32.2314C65.5118 32.0514 65.2351 31.9614 64.9085 31.9614C64.5818 31.9614 64.3051 32.0514 64.0785 32.2314C63.8518 32.4047 63.6985 32.6414 63.6185 32.9414C63.5651 33.1747 63.5385 33.5114 63.5385 33.9514C63.5385 34.3914 63.5651 34.7281 63.6185 34.9614C63.6918 35.2614 63.8418 35.5014 64.0685 35.6814C64.3018 35.8547 64.5851 35.9414 64.9185 35.9414ZM71.3791 30.1014C71.0124 30.1014 70.7624 30.1847 70.6291 30.3514C70.4958 30.5114 70.4291 30.7881 70.4291 31.1814V31.3814C70.4291 31.4081 70.4424 31.4214 70.4691 31.4214H71.5891C71.6558 31.4214 71.6891 31.4547 71.6891 31.5214V31.9714C71.6891 32.0381 71.6558 32.0714 71.5891 32.0714H70.4691C70.4424 32.0714 70.4291 32.0847 70.4291 32.1114V36.3814C70.4291 36.4481 70.3958 36.4814 70.3291 36.4814H69.8291C69.7624 36.4814 69.7291 36.4481 69.7291 36.3814V32.1114C69.7291 32.0847 69.7158 32.0714 69.6891 32.0714H69.0191C68.9524 32.0714 68.9191 32.0381 68.9191 31.9714V31.5214C68.9191 31.4547 68.9524 31.4214 69.0191 31.4214H69.6891C69.7158 31.4214 69.7291 31.4081 69.7291 31.3814V31.1414C69.7291 30.7281 69.7758 30.4047 69.8691 30.1714C69.9624 29.9314 70.1224 29.7581 70.3491 29.6514C70.5824 29.5381 70.9058 29.4814 71.3191 29.4814H71.6091C71.6758 29.4814 71.7091 29.5147 71.7091 29.5814V30.0014C71.7091 30.0681 71.6758 30.1014 71.6091 30.1014H71.3791ZM76.2136 31.9114C76.2136 31.9781 76.1802 32.0114 76.1136 32.0114H74.9836C74.9569 32.0114 74.9436 32.0247 74.9436 32.0514V35.0014C74.9436 35.3214 75.0136 35.5481 75.1536 35.6814C75.3002 35.8081 75.5269 35.8714 75.8336 35.8714H76.0836C76.1502 35.8714 76.1836 35.9047 76.1836 35.9714V36.3814C76.1836 36.4481 76.1502 36.4814 76.0836 36.4814C76.0036 36.4881 75.8802 36.4914 75.7136 36.4914C75.2336 36.4914 74.8702 36.4014 74.6236 36.2214C74.3769 36.0414 74.2536 35.7081 74.2536 35.2214V32.0514C74.2536 32.0247 74.2402 32.0114 74.2136 32.0114H73.6036C73.5369 32.0114 73.5036 31.9781 73.5036 31.9114V31.5214C73.5036 31.4547 73.5369 31.4214 73.6036 31.4214H74.2136C74.2402 31.4214 74.2536 31.4081 74.2536 31.3814V30.2214C74.2536 30.1547 74.2869 30.1214 74.3536 30.1214H74.8436C74.9102 30.1214 74.9436 30.1547 74.9436 30.2214V31.3814C74.9436 31.4081 74.9569 31.4214 74.9836 31.4214H76.1136C76.1802 31.4214 76.2136 31.4547 76.2136 31.5214V31.9114ZM79.6361 36.4814C79.5828 36.4814 79.5461 36.4547 79.5261 36.4014L78.1061 31.5314L78.0961 31.5014C78.0961 31.4481 78.1295 31.4214 78.1961 31.4214H78.7161C78.7761 31.4214 78.8128 31.4514 78.8261 31.5114L79.8861 35.4514C79.8928 35.4647 79.8995 35.4714 79.9061 35.4714C79.9195 35.4714 79.9295 35.4647 79.9361 35.4514L81.0161 31.5114C81.0295 31.4514 81.0661 31.4214 81.1261 31.4214H81.6061C81.6661 31.4214 81.7028 31.4481 81.7161 31.5014L82.8061 35.4414C82.8128 35.4547 82.8228 35.4614 82.8361 35.4614C82.8495 35.4614 82.8595 35.4547 82.8661 35.4414L83.9561 31.5114C83.9695 31.4514 84.0061 31.4214 84.0661 31.4214L84.5861 31.4314C84.6195 31.4314 84.6428 31.4414 84.6561 31.4614C84.6761 31.4814 84.6828 31.5081 84.6761 31.5414L83.2361 36.4014C83.2161 36.4547 83.1795 36.4814 83.1261 36.4814H82.5961C82.5428 36.4814 82.5061 36.4547 82.4861 36.4014L81.3961 32.6614C81.3895 32.6481 81.3795 32.6414 81.3661 32.6414C81.3595 32.6414 81.3528 32.6481 81.3461 32.6614L80.2861 36.4014C80.2661 36.4547 80.2295 36.4814 80.1761 36.4814H79.6361ZM88.4357 31.3414C89.0357 31.3414 89.4991 31.4947 89.8257 31.8014C90.1524 32.1081 90.3157 32.5147 90.3157 33.0214V36.3814C90.3157 36.4481 90.2824 36.4814 90.2157 36.4814H89.7057C89.6391 36.4814 89.6057 36.4481 89.6057 36.3814V35.9714C89.6057 35.9581 89.5991 35.9481 89.5857 35.9414C89.5791 35.9347 89.5691 35.9381 89.5557 35.9514C89.3891 36.1514 89.1724 36.3047 88.9057 36.4114C88.6391 36.5114 88.3424 36.5614 88.0157 36.5614C87.5424 36.5614 87.1457 36.4414 86.8257 36.2014C86.5057 35.9614 86.3457 35.5947 86.3457 35.1014C86.3457 34.6014 86.5257 34.2081 86.8857 33.9214C87.2524 33.6281 87.7591 33.4814 88.4057 33.4814H89.5657C89.5924 33.4814 89.6057 33.4681 89.6057 33.4414V33.0614C89.6057 32.7214 89.5091 32.4547 89.3157 32.2614C89.1291 32.0614 88.8357 31.9614 88.4357 31.9614C88.1157 31.9614 87.8557 32.0247 87.6557 32.1514C87.4557 32.2714 87.3324 32.4414 87.2857 32.6614C87.2657 32.7281 87.2257 32.7581 87.1657 32.7514L86.6257 32.6814C86.5524 32.6681 86.5224 32.6414 86.5357 32.6014C86.5891 32.2281 86.7891 31.9247 87.1357 31.6914C87.4824 31.4581 87.9157 31.3414 88.4357 31.3414ZM88.1557 35.9514C88.5491 35.9514 88.8891 35.8547 89.1757 35.6614C89.4624 35.4614 89.6057 35.1947 89.6057 34.8614V34.0814C89.6057 34.0547 89.5924 34.0414 89.5657 34.0414H88.5157C88.0757 34.0414 87.7224 34.1314 87.4557 34.3114C87.1891 34.4914 87.0557 34.7414 87.0557 35.0614C87.0557 35.3547 87.1557 35.5781 87.3557 35.7314C87.5624 35.8781 87.8291 35.9514 88.1557 35.9514ZM94.8332 31.3714C95.0532 31.3714 95.2432 31.4147 95.4032 31.5014C95.4565 31.5281 95.4765 31.5714 95.4632 31.6314L95.3532 32.1214C95.3332 32.1881 95.2898 32.2081 95.2232 32.1814C95.1098 32.1347 94.9798 32.1114 94.8332 32.1114L94.7032 32.1214C94.3565 32.1347 94.0698 32.2647 93.8432 32.5114C93.6165 32.7514 93.5032 33.0581 93.5032 33.4314V36.3814C93.5032 36.4481 93.4698 36.4814 93.4032 36.4814H92.8932C92.8265 36.4814 92.7932 36.4481 92.7932 36.3814V31.5214C92.7932 31.4547 92.8265 31.4214 92.8932 31.4214H93.4032C93.4698 31.4214 93.5032 31.4547 93.5032 31.5214V32.1314C93.5032 32.1514 93.5065 32.1647 93.5132 32.1714C93.5265 32.1714 93.5365 32.1647 93.5432 32.1514C93.6832 31.9047 93.8598 31.7147 94.0732 31.5814C94.2932 31.4414 94.5465 31.3714 94.8332 31.3714ZM101.267 33.1014C101.294 33.2881 101.307 33.5214 101.307 33.8014V34.1214C101.307 34.1881 101.274 34.2214 101.207 34.2214H97.9769C97.9502 34.2214 97.9369 34.2347 97.9369 34.2614C97.9502 34.6281 97.9702 34.8647 97.9969 34.9714C98.0702 35.2714 98.2269 35.5081 98.4669 35.6814C98.7069 35.8547 99.0136 35.9414 99.3869 35.9414C99.6669 35.9414 99.9136 35.8781 100.127 35.7514C100.34 35.6247 100.507 35.4447 100.627 35.2114C100.667 35.1514 100.714 35.1381 100.767 35.1714L101.157 35.4014C101.21 35.4347 101.224 35.4814 101.197 35.5414C101.03 35.8614 100.78 36.1147 100.447 36.3014C100.114 36.4814 99.7302 36.5714 99.2969 36.5714C98.8236 36.5647 98.4269 36.4514 98.1069 36.2314C97.7869 36.0114 97.5569 35.7047 97.4169 35.3114C97.2969 34.9914 97.2369 34.5314 97.2369 33.9314C97.2369 33.6514 97.2402 33.4247 97.2469 33.2514C97.2602 33.0714 97.2869 32.9114 97.3269 32.7714C97.4402 32.3381 97.6669 31.9914 98.0069 31.7314C98.3536 31.4714 98.7702 31.3414 99.2569 31.3414C99.8636 31.3414 100.33 31.4947 100.657 31.8014C100.984 32.1081 101.187 32.5414 101.267 33.1014ZM99.2569 31.9614C98.9302 31.9614 98.6569 32.0481 98.4369 32.2214C98.2236 32.3881 98.0836 32.6147 98.0169 32.9014C97.9769 33.0414 97.9502 33.2681 97.9369 33.5814C97.9369 33.6081 97.9502 33.6214 97.9769 33.6214H100.567C100.594 33.6214 100.607 33.6081 100.607 33.5814C100.594 33.2814 100.574 33.0681 100.547 32.9414C100.474 32.6414 100.324 32.4047 100.097 32.2314C99.8769 32.0514 99.5969 31.9614 99.2569 31.9614ZM108.881 36.5614C108.128 36.5614 107.531 36.3914 107.091 36.0514C106.658 35.7114 106.441 35.2581 106.441 34.6914V34.3814C106.441 34.3147 106.474 34.2814 106.541 34.2814H107.031C107.098 34.2814 107.131 34.3147 107.131 34.3814V34.6514C107.131 35.0381 107.291 35.3514 107.611 35.5914C107.931 35.8247 108.374 35.9414 108.941 35.9414C109.454 35.9414 109.844 35.8347 110.111 35.6214C110.378 35.4014 110.511 35.1114 110.511 34.7514C110.511 34.5181 110.448 34.3181 110.321 34.1514C110.201 33.9847 110.011 33.8281 109.751 33.6814C109.498 33.5347 109.138 33.3647 108.671 33.1714C108.171 32.9714 107.781 32.7981 107.501 32.6514C107.228 32.4981 107.004 32.3047 106.831 32.0714C106.664 31.8314 106.581 31.5314 106.581 31.1714C106.581 30.6114 106.774 30.1781 107.161 29.8714C107.554 29.5581 108.091 29.4014 108.771 29.4014C109.511 29.4014 110.094 29.5747 110.521 29.9214C110.948 30.2681 111.161 30.7281 111.161 31.3014V31.5214C111.161 31.5881 111.128 31.6214 111.061 31.6214H110.561C110.494 31.6214 110.461 31.5881 110.461 31.5214V31.3414C110.461 30.9547 110.308 30.6381 110.001 30.3914C109.701 30.1447 109.281 30.0214 108.741 30.0214C108.268 30.0214 107.904 30.1181 107.651 30.3114C107.398 30.5047 107.271 30.7847 107.271 31.1514C107.271 31.3914 107.331 31.5914 107.451 31.7514C107.578 31.9047 107.754 32.0414 107.981 32.1614C108.214 32.2747 108.571 32.4247 109.051 32.6114C109.538 32.8114 109.928 32.9981 110.221 33.1714C110.521 33.3447 110.761 33.5581 110.941 33.8114C111.128 34.0581 111.221 34.3614 111.221 34.7214C111.221 35.2814 111.014 35.7281 110.601 36.0614C110.188 36.3947 109.614 36.5614 108.881 36.5614ZM115.491 36.5614C115.011 36.5614 114.597 36.4381 114.251 36.1914C113.904 35.9447 113.664 35.6047 113.531 35.1714C113.437 34.8647 113.391 34.4547 113.391 33.9414C113.391 33.4281 113.437 33.0214 113.531 32.7214C113.657 32.2947 113.894 31.9581 114.241 31.7114C114.587 31.4647 115.007 31.3414 115.501 31.3414C115.974 31.3414 116.381 31.4647 116.721 31.7114C117.067 31.9581 117.304 32.2914 117.431 32.7114C117.524 32.9981 117.571 33.4081 117.571 33.9414C117.571 34.4814 117.524 34.8914 117.431 35.1714C117.304 35.6047 117.067 35.9447 116.721 36.1914C116.381 36.4381 115.971 36.5614 115.491 36.5614ZM115.491 35.9414C115.811 35.9414 116.084 35.8547 116.311 35.6814C116.537 35.5014 116.691 35.2614 116.771 34.9614C116.831 34.7214 116.861 34.3847 116.861 33.9514C116.861 33.5114 116.834 33.1747 116.781 32.9414C116.701 32.6414 116.544 32.4047 116.311 32.2314C116.084 32.0514 115.807 31.9614 115.481 31.9614C115.154 31.9614 114.877 32.0514 114.651 32.2314C114.424 32.4047 114.271 32.6414 114.191 32.9414C114.137 33.1747 114.111 33.5114 114.111 33.9514C114.111 34.3914 114.137 34.7281 114.191 34.9614C114.264 35.2614 114.414 35.5014 114.641 35.6814C114.874 35.8547 115.157 35.9414 115.491 35.9414ZM120.11 36.4814C120.043 36.4814 120.01 36.4481 120.01 36.3814V29.5814C120.01 29.5147 120.043 29.4814 120.11 29.4814H120.62C120.687 29.4814 120.72 29.5147 120.72 29.5814V36.3814C120.72 36.4481 120.687 36.4814 120.62 36.4814H120.11ZM126.375 31.5214C126.375 31.4547 126.408 31.4214 126.475 31.4214H126.985C127.051 31.4214 127.085 31.4547 127.085 31.5214V36.3814C127.085 36.4481 127.051 36.4814 126.985 36.4814H126.475C126.408 36.4814 126.375 36.4481 126.375 36.3814V35.9514C126.375 35.9381 126.368 35.9281 126.355 35.9214C126.341 35.9147 126.331 35.9181 126.325 35.9314C126.045 36.3447 125.601 36.5514 124.995 36.5514C124.675 36.5514 124.378 36.4881 124.105 36.3614C123.838 36.2281 123.625 36.0381 123.465 35.7914C123.311 35.5447 123.235 35.2481 123.235 34.9014V31.5214C123.235 31.4547 123.268 31.4214 123.335 31.4214H123.845C123.911 31.4214 123.945 31.4547 123.945 31.5214V34.6914C123.945 35.0714 124.051 35.3747 124.265 35.6014C124.478 35.8214 124.768 35.9314 125.135 35.9314C125.515 35.9314 125.815 35.8181 126.035 35.5914C126.261 35.3647 126.375 35.0647 126.375 34.6914V31.5214ZM131.946 31.9114C131.946 31.9781 131.913 32.0114 131.846 32.0114H130.716C130.689 32.0114 130.676 32.0247 130.676 32.0514V35.0014C130.676 35.3214 130.746 35.5481 130.886 35.6814C131.033 35.8081 131.259 35.8714 131.566 35.8714H131.816C131.883 35.8714 131.916 35.9047 131.916 35.9714V36.3814C131.916 36.4481 131.883 36.4814 131.816 36.4814C131.736 36.4881 131.613 36.4914 131.446 36.4914C130.966 36.4914 130.603 36.4014 130.356 36.2214C130.109 36.0414 129.986 35.7081 129.986 35.2214V32.0514C129.986 32.0247 129.973 32.0114 129.946 32.0114H129.336C129.269 32.0114 129.236 31.9781 129.236 31.9114V31.5214C129.236 31.4547 129.269 31.4214 129.336 31.4214H129.946C129.973 31.4214 129.986 31.4081 129.986 31.3814V30.2214C129.986 30.1547 130.019 30.1214 130.086 30.1214H130.576C130.643 30.1214 130.676 30.1547 130.676 30.2214V31.3814C130.676 31.4081 130.689 31.4214 130.716 31.4214H131.846C131.913 31.4214 131.946 31.4547 131.946 31.5214V31.9114ZM134.799 30.5014C134.639 30.5014 134.505 30.4481 134.399 30.3414C134.292 30.2347 134.239 30.1014 134.239 29.9414C134.239 29.7747 134.292 29.6414 134.399 29.5414C134.505 29.4347 134.639 29.3814 134.799 29.3814C134.959 29.3814 135.092 29.4347 135.199 29.5414C135.305 29.6414 135.359 29.7747 135.359 29.9414C135.359 30.1014 135.305 30.2347 135.199 30.3414C135.092 30.4481 134.959 30.5014 134.799 30.5014ZM134.519 36.4714C134.452 36.4714 134.419 36.4381 134.419 36.3714V31.5114C134.419 31.4447 134.452 31.4114 134.519 31.4114H135.029C135.095 31.4114 135.129 31.4447 135.129 31.5114V36.3714C135.129 36.4381 135.095 36.4714 135.029 36.4714H134.519ZM139.797 36.5614C139.317 36.5614 138.904 36.4381 138.557 36.1914C138.211 35.9447 137.971 35.6047 137.837 35.1714C137.744 34.8647 137.697 34.4547 137.697 33.9414C137.697 33.4281 137.744 33.0214 137.837 32.7214C137.964 32.2947 138.201 31.9581 138.547 31.7114C138.894 31.4647 139.314 31.3414 139.807 31.3414C140.281 31.3414 140.687 31.4647 141.027 31.7114C141.374 31.9581 141.611 32.2914 141.737 32.7114C141.831 32.9981 141.877 33.4081 141.877 33.9414C141.877 34.4814 141.831 34.8914 141.737 35.1714C141.611 35.6047 141.374 35.9447 141.027 36.1914C140.687 36.4381 140.277 36.5614 139.797 36.5614ZM139.797 35.9414C140.117 35.9414 140.391 35.8547 140.617 35.6814C140.844 35.5014 140.997 35.2614 141.077 34.9614C141.137 34.7214 141.167 34.3847 141.167 33.9514C141.167 33.5114 141.141 33.1747 141.087 32.9414C141.007 32.6414 140.851 32.4047 140.617 32.2314C140.391 32.0514 140.114 31.9614 139.787 31.9614C139.461 31.9614 139.184 32.0514 138.957 32.2314C138.731 32.4047 138.577 32.6414 138.497 32.9414C138.444 33.1747 138.417 33.5114 138.417 33.9514C138.417 34.3914 138.444 34.7281 138.497 34.9614C138.571 35.2614 138.721 35.5014 138.947 35.6814C139.181 35.8547 139.464 35.9414 139.797 35.9414ZM146.417 31.3514C146.95 31.3514 147.373 31.5081 147.687 31.8214C148.007 32.1347 148.167 32.5547 148.167 33.0814V36.3814C148.167 36.4481 148.133 36.4814 148.067 36.4814H147.557C147.49 36.4814 147.457 36.4481 147.457 36.3814V33.2214C147.457 32.8547 147.343 32.5547 147.117 32.3214C146.897 32.0881 146.61 31.9714 146.257 31.9714C145.89 31.9714 145.593 32.0847 145.367 32.3114C145.14 32.5381 145.027 32.8347 145.027 33.2014V36.3814C145.027 36.4481 144.993 36.4814 144.927 36.4814H144.417C144.35 36.4814 144.317 36.4481 144.317 36.3814V31.5214C144.317 31.4547 144.35 31.4214 144.417 31.4214H144.927C144.993 31.4214 145.027 31.4547 145.027 31.5214V31.9514C145.027 31.9647 145.03 31.9747 145.037 31.9814C145.05 31.9881 145.06 31.9847 145.067 31.9714C145.36 31.5581 145.81 31.3514 146.417 31.3514ZM152.367 36.5314C151.994 36.5314 151.661 36.4714 151.367 36.3514C151.081 36.2314 150.857 36.0714 150.697 35.8714C150.544 35.6714 150.467 35.4481 150.467 35.2014V35.0814C150.467 35.0147 150.501 34.9814 150.567 34.9814H151.047C151.114 34.9814 151.147 35.0147 151.147 35.0814V35.1614C151.147 35.3814 151.261 35.5747 151.487 35.7414C151.721 35.9014 152.011 35.9814 152.357 35.9814C152.704 35.9814 152.984 35.9047 153.197 35.7514C153.411 35.5914 153.517 35.3914 153.517 35.1514C153.517 34.9847 153.461 34.8481 153.347 34.7414C153.241 34.6347 153.111 34.5514 152.957 34.4914C152.811 34.4314 152.581 34.3547 152.267 34.2614C151.894 34.1547 151.587 34.0481 151.347 33.9414C151.107 33.8347 150.904 33.6881 150.737 33.5014C150.577 33.3081 150.497 33.0647 150.497 32.7714C150.497 32.3447 150.664 32.0047 150.997 31.7514C151.331 31.4981 151.771 31.3714 152.317 31.3714C152.684 31.3714 153.007 31.4314 153.287 31.5514C153.574 31.6714 153.794 31.8381 153.947 32.0514C154.101 32.2581 154.177 32.4914 154.177 32.7514V32.7814C154.177 32.8481 154.144 32.8814 154.077 32.8814H153.607C153.541 32.8814 153.507 32.8481 153.507 32.7814V32.7514C153.507 32.5247 153.397 32.3347 153.177 32.1814C152.964 32.0281 152.674 31.9514 152.307 31.9514C151.967 31.9514 151.694 32.0214 151.487 32.1614C151.281 32.2947 151.177 32.4814 151.177 32.7214C151.177 32.9481 151.277 33.1214 151.477 33.2414C151.677 33.3614 151.987 33.4814 152.407 33.6014C152.794 33.7147 153.107 33.8214 153.347 33.9214C153.587 34.0214 153.794 34.1681 153.967 34.3614C154.141 34.5481 154.227 34.7947 154.227 35.1014C154.227 35.5347 154.057 35.8814 153.717 36.1414C153.377 36.4014 152.927 36.5314 152.367 36.5314Z" fill="#777986"/>
</svg>
