<svg width="27" height="28" viewBox="0 0 27 28" fill="none" xmlns="http://www.w3.org/2000/svg">
<path d="M5.625 13.1562C5.15901 13.1562 4.78125 13.534 4.78125 14C4.78125 14.466 5.15901 14.8438 5.625 14.8438V13.1562ZM21.9716 14.5966C22.3011 14.2671 22.3011 13.7329 21.9716 13.4034L16.602 8.03379C16.2725 7.70428 15.7383 7.70428 15.4088 8.03379C15.0793 8.36329 15.0793 8.89752 15.4088 9.22703L20.1818 14L15.4088 18.773C15.0793 19.1025 15.0793 19.6367 15.4088 19.9662C15.7383 20.2957 16.2725 20.2957 16.602 19.9662L21.9716 14.5966ZM5.625 14.8438H21.375V13.1562H5.625V14.8438Z" fill="#14A2F1"/>
</svg>
