<svg width="90" height="52" viewBox="0 0 90 52" fill="none" xmlns="http://www.w3.org/2000/svg">
<g clip-path="url(#clip0_316_1007)">
<path d="M25.6547 18.8854C25.6547 19.9555 25.7721 20.8231 25.9774 21.4594C26.212 22.0957 26.5054 22.7898 26.916 23.5417C27.0627 23.7731 27.1214 24.0044 27.1214 24.2069C27.1214 24.4961 26.9454 24.7853 26.564 25.0745L24.7161 26.2892C24.4521 26.4627 24.1881 26.5495 23.9534 26.5495C23.6601 26.5495 23.3668 26.4049 23.0735 26.1446C22.6628 25.7108 22.3108 25.2481 22.0175 24.7853C21.7242 24.2937 21.4308 23.7442 21.1082 23.079C18.8202 25.7397 15.9456 27.0701 12.4844 27.0701C10.0205 27.0701 8.05517 26.376 6.61788 24.9878C5.18058 23.5996 4.44727 21.7486 4.44727 19.4349C4.44727 16.9766 5.32724 14.9811 7.11653 13.4772C8.90582 11.9733 11.2818 11.2214 14.303 11.2214C15.3003 11.2214 16.327 11.3081 17.4123 11.4527C18.4976 11.5973 19.6122 11.8287 20.7855 12.089V9.97775C20.7855 7.77976 20.3162 6.24694 19.4069 5.35039C18.4682 4.45384 16.8843 4.02002 14.6257 4.02002C13.599 4.02002 12.5431 4.13571 11.4578 4.396C10.3724 4.65628 9.31648 4.97442 8.28984 5.37931C7.82051 5.58176 7.46852 5.69744 7.26319 5.75528C7.05787 5.81313 6.9112 5.84205 6.79387 5.84205C6.38322 5.84205 6.17789 5.55284 6.17789 4.9455V3.52836C6.17789 3.06563 6.23655 2.71858 6.38322 2.51613C6.52988 2.31368 6.79387 2.11123 7.20453 1.90879C8.23117 1.38821 9.46314 0.954394 10.9004 0.607341C12.3377 0.231368 13.863 0.057842 15.4763 0.057842C18.9669 0.057842 21.5188 0.838709 23.1615 2.40044C24.7748 3.96218 25.5961 6.3337 25.5961 9.51502V18.8854H25.6547ZM13.7457 23.2814C14.7137 23.2814 15.711 23.1079 16.767 22.7608C17.8229 22.4138 18.7616 21.7775 19.5536 20.9099C20.0229 20.3604 20.3749 19.7531 20.5509 19.059C20.7269 18.3648 20.8442 17.5261 20.8442 16.5428V15.3281C19.9935 15.1257 19.0842 14.9522 18.1456 14.8365C17.2069 14.7208 16.2976 14.663 15.3883 14.663C13.423 14.663 11.9857 15.0389 11.0178 15.8198C10.0498 16.6007 9.58047 17.6997 9.58047 19.1457C9.58047 20.505 9.93246 21.5172 10.6658 22.2113C11.3698 22.9344 12.3964 23.2814 13.7457 23.2814ZM37.2998 26.4049C36.7718 26.4049 36.4198 26.3181 36.1851 26.1157C35.9505 25.9422 35.7451 25.5373 35.5691 24.9878L28.676 2.63181C28.5 2.05339 28.412 1.67742 28.412 1.47497C28.412 1.01224 28.6467 0.751947 29.116 0.751947H31.9906C32.5479 0.751947 32.9292 0.83871 33.1345 1.04116C33.3692 1.21468 33.5452 1.61958 33.7212 2.16908L38.6491 21.3148L43.225 2.16908C43.3716 1.59066 43.5476 1.21468 43.7823 1.04116C44.0169 0.867631 44.4276 0.751947 44.9556 0.751947H47.3022C47.8595 0.751947 48.2408 0.83871 48.4755 1.04116C48.7101 1.21468 48.9155 1.61958 49.0328 2.16908L53.6674 21.5462L58.7419 2.16908C58.9179 1.59066 59.1232 1.21468 59.3285 1.04116C59.5632 0.867631 59.9445 0.751947 60.4725 0.751947H63.2004C63.6698 0.751947 63.9338 0.983315 63.9338 1.47497C63.9338 1.61958 63.9044 1.76418 63.8751 1.93771C63.8458 2.11123 63.7871 2.3426 63.6698 2.66073L56.6006 25.0167C56.4246 25.5951 56.2193 25.9711 55.9846 26.1446C55.75 26.3181 55.3686 26.4338 54.87 26.4338H52.3474C51.7901 26.4338 51.4087 26.3471 51.1741 26.1446C50.9394 25.9422 50.7341 25.5662 50.6168 24.9878L46.0702 6.3337L41.553 24.9588C41.4063 25.5373 41.2303 25.9132 40.9957 26.1157C40.761 26.3181 40.3504 26.4049 39.8224 26.4049H37.2998ZM74.9921 27.1858C73.4669 27.1858 71.9416 27.0122 70.4749 26.6652C69.0083 26.3181 67.8643 25.9422 67.1017 25.5083C66.6324 25.2481 66.3097 24.9588 66.1924 24.6986C66.075 24.4383 66.0164 24.1491 66.0164 23.8888V22.4138C66.0164 21.8065 66.251 21.5172 66.691 21.5172C66.867 21.5172 67.043 21.5462 67.219 21.604C67.395 21.6618 67.659 21.7775 67.9523 21.8932C68.9496 22.327 70.0349 22.6741 71.1789 22.9055C72.3522 23.1368 73.4962 23.2525 74.6695 23.2525C76.5174 23.2525 77.9547 22.9344 78.952 22.2981C79.9494 21.6618 80.4773 20.7364 80.4773 19.5506C80.4773 18.7408 80.2134 18.0756 79.6854 17.5261C79.1574 16.9766 78.1601 16.485 76.7228 16.0222L72.4695 14.7208C70.3283 14.0556 68.7443 13.0723 67.7763 11.7709C66.8084 10.4983 66.3097 9.0812 66.3097 7.57731C66.3097 6.36262 66.5737 5.29255 67.1017 4.36707C67.6297 3.4416 68.3336 2.63181 69.2136 1.99555C70.0936 1.33037 71.0909 0.83871 72.2642 0.491657C73.4375 0.144605 74.6695 0 75.9601 0C76.6054 0 77.2801 0.028921 77.9254 0.115684C78.6001 0.202447 79.216 0.318131 79.832 0.433815C80.4187 0.57842 80.976 0.723026 81.504 0.896552C82.032 1.07008 82.4426 1.2436 82.736 1.41713C83.1466 1.6485 83.4399 1.87987 83.6159 2.14016C83.7919 2.37152 83.8799 2.68966 83.8799 3.09455V4.45384C83.8799 5.06118 83.6453 5.37931 83.2053 5.37931C82.9706 5.37931 82.5893 5.26363 82.0906 5.03226C80.4187 4.28031 78.5414 3.90434 76.4588 3.90434C74.7868 3.90434 73.4669 4.16463 72.5575 4.71413C71.6482 5.26363 71.1789 6.10234 71.1789 7.2881C71.1789 8.09789 71.4722 8.79199 72.0589 9.34149C72.6455 9.89099 73.7309 10.4405 75.2855 10.9321L79.4507 12.2336C81.5626 12.8988 83.0879 13.8242 83.9973 15.01C84.9066 16.1958 85.3465 17.5551 85.3465 19.059C85.3465 20.3026 85.0826 21.4305 84.5839 22.4138C84.0559 23.3971 83.3519 24.2647 82.4426 24.9588C81.5333 25.6819 80.448 26.2024 79.1867 26.5784C77.8667 26.9833 76.4881 27.1858 74.9921 27.1858Z" fill="#252F3E"/>
<path fill-rule="evenodd" clip-rule="evenodd" d="M80.5362 41.2413C70.8857 48.2691 56.8647 51.9999 44.8091 51.9999C27.9135 51.9999 12.6899 45.8398 1.1915 35.6017C0.282186 34.7919 1.1035 33.6929 2.1888 34.3292C14.6258 41.4438 29.9668 45.753 45.8357 45.753C56.5421 45.753 68.3045 43.555 79.1282 39.0433C80.7415 38.3203 82.1201 40.0845 80.5362 41.2413Z" fill="#FF9900"/>
<path fill-rule="evenodd" clip-rule="evenodd" d="M84.5548 36.7297C83.3228 35.168 76.4003 35.9777 73.2617 36.3537C72.3231 36.4694 72.1764 35.6596 73.0271 35.0523C78.5416 31.2347 87.6054 32.3337 88.6613 33.6062C89.7173 34.9077 88.368 43.8443 83.2055 48.1246C82.4135 48.7898 81.6508 48.4427 82.0028 47.5751C83.1761 44.7119 85.7867 38.2625 84.5548 36.7297Z" fill="#FF9900"/>
</g>
<defs>
<clipPath id="clip0_316_1007">
<rect width="90" height="52" fill="white"/>
</clipPath>
</defs>
</svg>
