<svg width="87" height="87" viewBox="0 0 87 87" fill="none" xmlns="http://www.w3.org/2000/svg">
<path fill-rule="evenodd" clip-rule="evenodd" d="M74.7311 51.3077V63.0192C74.7311 71.6433 60.7486 78.6346 43.5003 78.6346C26.6353 78.6346 12.8926 71.9506 12.2901 63.5917L12.2695 63.0192V51.3077L12.2901 51.8801C12.8926 60.2391 26.6353 66.923 43.5003 66.923C60.7486 66.923 74.7311 59.9318 74.7311 51.3077ZM12.2901 32.3609C12.8926 40.7198 26.6353 47.4038 43.5003 47.4038C60.7486 47.4038 74.7311 40.4126 74.7311 31.7884V43.5L74.7269 43.7582C74.4511 52.2632 60.5761 59.1153 43.5003 59.1153C26.6353 59.1153 12.8926 52.4314 12.2901 44.0724L12.2695 43.5V31.7884L12.2901 32.3609ZM43.5003 8.36536C60.3653 8.36536 74.108 15.0493 74.7105 23.4083L74.7311 23.9807L74.7269 24.239C74.4511 32.744 60.5761 39.5961 43.5003 39.5961C26.6353 39.5961 12.8926 32.9121 12.2901 24.5532L12.2695 23.9807C12.2695 15.3566 26.252 8.36536 43.5003 8.36536Z" fill="#D2D4DA"/>
</svg>
