<svg width="16" height="17" viewBox="0 0 16 17" fill="none" xmlns="http://www.w3.org/2000/svg">
<g clip-path="url(#clip0_256_1353)">
<path d="M16 8.54951C16 4.10351 12.418 0.499512 8.00005 0.499512C3.58005 0.500512 -0.00195312 4.10351 -0.00195312 8.55051C-0.00195312 12.5675 2.92405 15.8975 6.74805 16.5015V10.8765H4.71805V8.55051H6.75005V6.77551C6.75005 4.75851 7.94505 3.64451 9.77205 3.64451C10.648 3.64451 11.563 3.80151 11.563 3.80151V5.78151H10.554C9.56105 5.78151 9.25105 6.40251 9.25105 7.03951V8.54951H11.469L11.115 10.8755H9.25005V16.5005C13.074 15.8965 16 12.5665 16 8.54951Z" fill="black"/>
</g>
<defs>
<clipPath id="clip0_256_1353">
<rect width="16" height="16" fill="white" transform="translate(0 0.5)"/>
</clipPath>
</defs>
</svg>
