<svg width="74" height="74" viewBox="0 0 74 74" fill="none" xmlns="http://www.w3.org/2000/svg">
<path d="M27.2486 66.5274C32.6724 66.5274 37.0753 62.1388 37.0753 56.7327V46.938H27.2486C21.8248 46.938 17.4219 51.3266 17.4219 56.7327C17.4219 62.1388 21.8248 66.5274 27.2486 66.5274Z" fill="#0ACF83"/>
<path d="M17.4121 37.1329C17.4121 31.7267 21.8151 27.3381 27.2388 27.3381H37.0656V46.9379H27.2388C21.8151 46.9379 17.4121 42.5492 17.4121 37.1431V37.1329Z" fill="#A259FF"/>
<path d="M17.4121 17.5332C17.4121 12.1271 21.8151 7.73853 27.2388 7.73853H37.0656V27.3382H27.2388C21.8151 27.3382 17.4121 22.9496 17.4121 17.5435V17.5332Z" fill="#F24E1E"/>
<path d="M36.9824 7.73853H46.8092C52.2329 7.73853 56.6359 12.1271 56.6359 17.5332C56.6359 22.9394 52.2329 27.328 46.8092 27.328H36.9824V7.73853Z" fill="#FF7262"/>
<path d="M56.739 37.1329C56.739 42.539 52.336 46.9276 46.9123 46.9276C41.4885 46.9276 36.9824 42.539 36.9824 37.1329C36.9824 31.7267 41.3854 27.3381 46.8092 27.3381C52.2329 27.3381 56.6359 31.7267 56.6359 37.1329H56.739Z" fill="#1ABCFE"/>
</svg>
