<svg width="70" height="70" viewBox="0 0 70 70" fill="none" xmlns="http://www.w3.org/2000/svg">
<g clip-path="url(#clip0_316_978)">
<path d="M42.9189 25.2831L35.9124 31.8019L29.4111 18.6878L32.7755 11.1453C33.6505 9.61405 35.0155 9.63155 35.8686 11.1453L42.9189 25.2831Z" fill="#FFA000"/>
<path d="M29.4107 18.6877L35.9119 31.8018L9.72754 56.1596L29.4107 18.6877Z" fill="#F57F17"/>
<path d="M50.5813 15.319C51.8325 14.1159 53.1275 14.5271 53.4579 16.2312L60.2741 55.8359L37.6816 69.3984C36.8941 69.8359 34.7941 70.024 34.7941 70.024C34.7941 70.024 32.8822 69.7965 32.1538 69.3678L9.72754 56.1596L50.5813 15.319Z" fill="#FFCA28"/>
<path d="M29.4114 18.6877L9.73047 56.1596L18.4958 1.39554C18.8195 -0.310714 19.7908 -0.474777 20.657 1.03022L29.4114 18.6877Z" fill="#FFA000"/>
</g>
<defs>
<clipPath id="clip0_316_978">
<rect width="70" height="70" fill="white"/>
</clipPath>
</defs>
</svg>
