<svg width="56" height="56" viewBox="0 0 56 56" fill="none" xmlns="http://www.w3.org/2000/svg">
<rect width="56" height="56" rx="8" fill="#E6F6FF"/>
<path d="M12.5996 42.0001C12.5996 42.7561 13.2296 43.4001 13.9996 43.4001H32.1996C32.9836 43.4001 33.5996 42.7561 33.5996 42.0001V40.6001H12.5996V42.0001ZM23.0996 23.8001C17.8496 23.8001 12.5996 26.6001 12.5996 32.2001H33.5996C33.5996 26.6001 28.3496 23.8001 23.0996 23.8001ZM16.2676 29.4001C17.8216 27.2301 21.1256 26.6001 23.0996 26.6001C25.0736 26.6001 28.3776 27.2301 29.9316 29.4001H16.2676ZM12.5996 35.0001H33.5996V37.8001H12.5996V35.0001ZM36.3996 18.2001V12.6001H33.5996V18.2001H26.5996L26.9216 21.0001H40.3056L38.3456 40.6001H36.3996V43.4001H38.8076C39.9836 43.4001 40.9496 42.4901 41.0896 41.3421L43.3996 18.2001H36.3996Z" fill="#14A2F1"/>
</svg>
