<svg width="123" height="61" viewBox="0 0 123 61" fill="none" xmlns="http://www.w3.org/2000/svg">
<path d="M66.4919 11.7649L67.6645 11.7853L70.8502 8.62545L71.004 7.2865C68.4722 5.05289 65.1409 3.6936 61.495 3.6936C54.894 3.6936 49.3221 8.14864 47.6719 14.1836C48.0204 13.9426 48.7635 14.1226 48.7635 14.1226L55.1308 13.0835C55.1308 13.0835 55.4588 12.5447 55.6228 12.5783C56.9896 11.0952 58.8753 10.1853 60.8953 10.0342C62.9153 9.88302 64.9163 10.502 66.4919 11.7649Z" fill="#EA4335"/>
<path d="M75.3373 14.1947C74.6053 11.5236 73.1035 9.12234 71.0159 7.2854L66.5039 11.7608C67.4298 12.4989 68.1771 13.4337 68.6907 14.4963C69.2042 15.5588 69.4709 16.7221 69.4712 17.9004V18.6904C71.6668 18.6904 73.4482 20.4624 73.4482 22.635C73.4482 24.8076 71.6617 26.5797 69.4712 26.5797H61.5152L60.7188 27.3727V32.1083L61.5152 32.8942H69.4712C72.2113 32.887 74.8369 31.8036 76.7737 29.8812C78.7105 27.9588 79.8009 25.3538 79.8063 22.636C79.8022 19.1428 78.0269 16.048 75.327 14.1947H75.3373Z" fill="#4285F4"/>
<path d="M53.5395 32.9015H61.4935V26.5859H53.5395C52.9746 26.5862 52.4163 26.4659 51.9025 26.2332L50.7545 26.5819L47.5688 29.7417L47.29 30.8092C49.0824 32.1742 51.2807 32.9108 53.5405 32.9035L53.5395 32.9015Z" fill="#34A853"/>
<path d="M53.5397 12.3779C50.797 12.3822 48.1679 13.4648 46.2285 15.3884C44.2891 17.312 43.1977 19.9198 43.1934 22.6402C43.1933 24.2243 43.5636 25.7868 44.275 27.205C44.9863 28.6233 46.0195 29.8587 47.2934 30.8142L51.9059 26.2392C51.2072 25.9274 50.6142 25.422 50.1981 24.7839C49.7821 24.1458 49.5607 23.4021 49.5607 22.6422C49.5607 20.4645 51.3472 18.6975 53.5377 18.6975C54.3035 18.6989 55.0528 18.9189 55.6959 19.3314C56.339 19.7439 56.8487 20.3314 57.1641 21.0237L61.7766 16.4487C59.8845 13.9782 56.8976 12.382 53.5356 12.382L53.5397 12.3779Z" fill="#FBBC05"/>
<path d="M12.3004 52.8026C10.1274 52.8026 8.26188 52.0401 6.68953 50.5151C5.11718 48.9901 4.33203 47.156 4.33203 45.0169C4.33203 42.8779 5.11616 41.0438 6.68953 39.5188C8.26291 37.9938 10.1305 37.2303 12.3004 37.2303C13.2958 37.2159 14.2842 37.3982 15.2079 37.7665C16.1316 38.1348 16.9721 38.6817 17.6806 39.3754L16.1667 40.8771C15.1307 39.8835 13.7403 39.337 12.2994 39.3571C10.7311 39.3571 9.39861 39.9061 8.30596 41.0113C7.7744 41.5348 7.35531 42.1598 7.07397 42.8484C6.79263 43.537 6.65488 44.2751 6.66903 45.0179C6.66903 46.5897 7.21228 47.9226 8.30596 49.0236C8.81991 49.5585 9.44022 49.9817 10.1276 50.2664C10.815 50.5511 11.5545 50.6912 12.2994 50.6777C13.8963 50.6777 15.2155 50.1694 16.2661 49.1182C16.8811 48.5082 17.2911 47.5932 17.4346 46.4392H12.3035V44.3124H19.5236C19.6004 44.6906 19.6261 45.1257 19.6261 45.634C19.6261 47.7243 19.008 49.3815 17.7677 50.6106C16.3614 52.0695 14.539 52.7965 12.2891 52.7965L12.3004 52.8026ZM29.0796 51.3792C28.0956 52.3349 26.8964 52.8026 25.4798 52.8026C24.0633 52.8026 22.862 52.3247 21.88 51.3792C20.8981 50.4337 20.4061 49.231 20.4061 47.8006C20.4061 46.3701 20.8981 45.1776 21.88 44.2219C22.862 43.2662 24.0633 42.7986 25.4798 42.7986C26.8964 42.7986 28.0977 43.2764 29.0796 44.2219C30.0616 45.1674 30.5536 46.3732 30.5536 47.8006C30.5536 49.228 30.0616 50.4236 29.0796 51.3792ZM23.4688 49.9762C23.7245 50.2519 24.0357 50.4711 24.3824 50.6198C24.729 50.7685 25.1032 50.8433 25.4809 50.8394C26.2599 50.8394 26.9302 50.5527 27.4929 49.9752C28.0557 49.3977 28.3355 48.6739 28.3355 47.7995C28.3355 46.915 28.0587 46.1851 27.5022 45.6137C26.9456 45.0423 26.2742 44.7597 25.4809 44.7597C25.1025 44.754 24.7271 44.827 24.3789 44.9741C24.0307 45.1212 23.7175 45.3391 23.4596 45.6137C22.903 46.183 22.6262 46.911 22.6262 47.7995C22.6262 48.6718 22.9061 49.3988 23.4688 49.9752V49.9762ZM40.1486 51.3792C39.1646 52.3349 37.9654 52.8026 36.5488 52.8026C35.1323 52.8026 33.931 52.3247 32.949 51.3792C31.9671 50.4337 31.4751 49.231 31.4751 47.8006C31.4751 46.3701 31.9671 45.1776 32.949 44.2219C33.931 43.2662 35.1323 42.7986 36.5488 42.7986C37.9654 42.7986 39.1667 43.2764 40.1486 44.2219C41.1306 45.1674 41.6226 46.3732 41.6226 47.8006C41.6226 49.228 41.1306 50.4236 40.1486 51.3792ZM34.5378 49.9762C34.7935 50.2519 35.1047 50.4711 35.4513 50.6198C35.798 50.7685 36.1722 50.8433 36.5498 50.8394C37.3288 50.8394 37.9992 50.5527 38.5619 49.9752C39.1246 49.3977 39.4045 48.6739 39.4045 47.7995C39.4045 46.915 39.1277 46.1851 38.5711 45.6137C38.0146 45.0423 37.3432 44.7597 36.5498 44.7597C36.1714 44.754 35.796 44.827 35.4479 44.9741C35.0997 45.1212 34.7865 45.3391 34.5285 45.6137C33.972 46.183 33.6952 46.911 33.6952 47.7995C33.6952 48.6718 33.975 49.3988 34.5378 49.9752V49.9762ZM47.4251 57.3166C46.3027 57.3166 45.3577 57.0177 44.592 56.4219C43.8263 55.8261 43.2779 55.1368 42.9458 54.3499L44.881 53.5539C45.084 54.0358 45.3935 54.4536 45.8374 54.8084C46.2812 55.1633 46.8009 55.3391 47.4282 55.3391C48.2707 55.3391 48.9329 55.085 49.4095 54.5797C49.8861 54.0744 50.127 53.3434 50.127 52.3939V51.6822H50.0501C49.4351 52.4416 48.5362 52.8229 47.3892 52.8229C46.0998 52.8229 44.9702 52.3349 43.9995 51.3609C43.528 50.9005 43.1558 50.3498 42.9056 49.7423C42.6554 49.1348 42.5324 48.4832 42.544 47.827C42.5322 47.1667 42.655 46.5109 42.9051 45.8989C43.1553 45.2869 43.5275 44.7313 43.9995 44.2656C44.9682 43.2866 46.1008 42.7945 47.3892 42.7945C47.9632 42.7945 48.4839 42.9012 48.9493 43.1178C49.4146 43.3343 49.7826 43.5997 50.0501 43.9138H50.127V43.1066H52.2344V52.1112C52.2344 53.8599 51.7854 55.1653 50.8834 56.0356C49.9814 56.8997 48.8314 57.3369 47.4261 57.3369L47.4251 57.3166ZM47.5788 50.8384C47.9442 50.8448 48.3065 50.7707 48.6396 50.6214C48.9726 50.4721 49.2681 50.2514 49.5048 49.9752C50.0214 49.3988 50.2797 48.681 50.2797 47.8178C50.2797 46.9455 50.0214 46.2156 49.5048 45.632C49.2695 45.3536 48.9745 45.1307 48.6413 44.9798C48.3081 44.8289 47.9451 44.7537 47.5788 44.7597C46.7998 44.7597 46.1356 45.0525 45.5883 45.632C45.0409 46.2115 44.7642 46.9415 44.7642 47.8178C44.7642 48.6779 45.0379 49.3988 45.5883 49.9752C46.1387 50.5517 46.8009 50.8384 47.5788 50.8384ZM55.9859 37.7589V52.5006H53.7647V37.7589H55.9859ZM62.0744 52.8015C60.6435 52.8015 59.4504 52.3196 58.493 51.3579C57.5357 50.3961 57.056 49.2066 57.056 47.7873C57.056 46.3193 57.5172 45.1135 58.4438 44.1782C58.8785 43.7245 59.4034 43.3652 59.9853 43.123C60.5671 42.8808 61.1933 42.761 61.8243 42.7711C62.4362 42.7711 63.0061 42.8809 63.5289 43.1036C64.0149 43.3011 64.4571 43.5912 64.8306 43.9576C65.1421 44.2651 65.4184 44.6057 65.6547 44.9732C65.85 45.2873 66.0167 45.618 66.1529 45.9614L66.3835 46.5307L59.6246 49.3083C60.1371 50.3209 60.9571 50.8282 62.0764 50.8282C63.0973 50.8282 63.9286 50.3676 64.5651 49.4425L66.2871 50.5832C65.9028 51.1525 65.3616 51.6659 64.6594 52.1214C63.9573 52.5769 63.0932 52.8026 62.0723 52.8026L62.0744 52.8015ZM59.2597 47.6369L63.7697 45.7764C63.6406 45.4592 63.4069 45.203 63.0522 45.0078C62.6956 44.8096 62.2925 44.7086 61.8837 44.715C61.2318 44.715 60.623 44.9793 60.0562 45.511C59.4893 46.0427 59.2157 46.7534 59.2413 47.6379L59.2597 47.6369ZM78.048 52.8015C76.0287 52.8015 74.3375 52.1244 72.9722 50.7682C71.6069 49.412 70.9222 47.7233 70.9222 45.6971C70.9222 43.6709 71.6048 41.9801 72.9722 40.6259C74.3395 39.2717 76.0298 38.5926 78.048 38.5926C80.1154 38.5926 81.7954 39.3348 83.0838 40.814L81.8589 41.9934C80.9364 40.8405 79.6552 40.265 78.0459 40.265C76.5494 40.265 75.2928 40.7652 74.2534 41.7666C73.2141 42.7681 72.7118 44.0765 72.7118 45.6971C72.7118 47.3176 73.2243 48.6291 74.2534 49.6316C75.2825 50.634 76.5423 51.1332 78.0459 51.1332C79.6921 51.1332 81.0974 50.4744 82.2484 49.1588L83.4733 50.3737C82.8315 51.1334 82.0258 51.7404 81.1158 52.1499C80.1506 52.5902 79.0991 52.8131 78.0367 52.8026L78.048 52.8015ZM86.8179 52.5006H85.0549V38.9007H86.8179V52.5006ZM89.691 44.3063C90.5981 43.3638 91.741 42.8901 93.1575 42.8901C94.5741 42.8901 95.7169 43.3628 96.6241 44.3063C97.5312 45.2497 97.9842 46.4413 97.9842 47.8494C97.9842 49.2574 97.5332 50.449 96.6241 51.3924C95.7149 52.3359 94.5741 52.8087 93.1575 52.8087C91.741 52.8087 90.5981 52.3359 89.691 51.3924C88.7838 50.449 88.3308 49.2574 88.3308 47.8494C88.3308 46.4413 88.7818 45.2497 89.691 44.3063ZM91.003 50.2873C91.618 50.9004 92.3293 51.2084 93.1555 51.2084C93.9816 51.2084 94.693 50.9004 95.308 50.2873C95.923 49.6743 96.2182 48.8589 96.2182 47.8473C96.2182 46.8357 95.9137 46.0194 95.308 45.4073C94.7022 44.7953 93.9816 44.4862 93.1555 44.4862C92.3293 44.4862 91.618 44.7943 91.003 45.4073C90.388 46.0204 90.0928 46.8357 90.0928 47.8473C90.0928 48.8589 90.3972 49.6753 91.003 50.2873ZM107.731 52.5006H106.045V51.2094H105.968C105.701 51.6517 105.291 52.0299 104.743 52.3278C104.195 52.6257 103.616 52.7954 103.001 52.7954C101.825 52.7954 100.936 52.4416 100.33 51.731C99.7247 51.0203 99.4203 50.0708 99.4203 48.8813V43.1818H101.183V48.5946C101.183 50.331 101.955 51.1972 103.5 51.1972C103.846 51.2045 104.188 51.129 104.498 50.9771C104.808 50.8253 105.077 50.6016 105.281 50.3249C105.737 49.7518 105.98 49.0408 105.97 48.3109V43.1818H107.733V52.4915L107.731 52.5006ZM113.705 52.8026C112.492 52.8026 111.444 52.3268 110.564 51.3772C109.685 50.4276 109.244 49.2503 109.244 47.8433C109.244 46.4362 109.685 45.2589 110.564 44.3093C111.444 43.3598 112.493 42.884 113.705 42.884C114.418 42.884 115.062 43.0365 115.632 43.3384C116.202 43.6404 116.626 44.0216 116.906 44.4791H116.983L116.906 43.1879V38.8976H118.669V52.5006H116.983V51.2094H116.906C116.626 51.6639 116.202 52.0451 115.632 52.3501C115.063 52.649 114.419 52.8026 113.705 52.8026ZM113.992 51.2064C114.389 51.2118 114.784 51.1332 115.149 50.976C115.514 50.8188 115.841 50.5865 116.108 50.2944C116.689 49.6875 116.98 48.8691 116.98 47.8544C116.98 46.8398 116.69 46.0112 116.108 45.4144C115.841 45.1224 115.514 44.8901 115.149 44.7329C114.784 44.5757 114.389 44.4971 113.992 44.5025C113.174 44.5025 112.472 44.8105 111.884 45.4236C111.297 46.0366 111.005 46.852 111.005 47.8636C111.005 48.8752 111.297 49.6916 111.884 50.3036C112.15 50.5966 112.475 50.8303 112.838 50.9891C113.201 51.148 113.595 51.2283 113.992 51.2247V51.2064Z" fill="#5F6368"/>
</svg>
