<svg width="56" height="56" viewBox="0 0 56 56" fill="none" xmlns="http://www.w3.org/2000/svg">
<rect width="56" height="56" rx="8" fill="#E6F6FF"/>
<path d="M36.4004 39.2L41.754 33.8464C41.9116 33.6891 42.0002 33.4756 42.0004 33.2528V25.9C42.0004 25.3431 41.7791 24.809 41.3853 24.4151C40.9915 24.0213 40.4573 23.8 39.9004 23.8C39.3434 23.8 38.8093 24.0213 38.4155 24.4151C38.0216 24.809 37.8004 25.3431 37.8004 25.9V32.2" stroke="#14A2F1" stroke-width="1.5" stroke-linecap="round" stroke-linejoin="round"/>
<path d="M36.4 33.6L37.6012 32.3988C37.6643 32.3358 37.7144 32.261 37.7485 32.1786C37.7826 32.0962 37.8001 32.0078 37.8 31.9186C37.7998 31.7928 37.7646 31.6694 37.6984 31.5623C37.6321 31.4553 37.5374 31.3688 37.4248 31.3124L36.8046 31.003C36.2792 30.7403 35.6844 30.6495 35.1045 30.7435C34.5246 30.8375 33.989 31.1114 33.5734 31.5266L32.3204 32.7796C31.7953 33.3046 31.5002 34.0167 31.5 34.7592V39.2M19.6 39.2L14.2464 33.8464C14.0888 33.6891 14.0002 33.4756 14 33.2528V25.9C14 25.3431 14.2212 24.809 14.6151 24.4151C15.0089 24.0213 15.543 23.8 16.1 23.8C16.657 23.8 17.1911 24.0213 17.5849 24.4151C17.9788 24.809 18.2 25.3431 18.2 25.9V32.2" stroke="#14A2F1" stroke-width="1.5" stroke-linecap="round" stroke-linejoin="round"/>
<path d="M19.6002 33.6L18.399 32.3989C18.3359 32.3358 18.2859 32.2609 18.2518 32.1785C18.2177 32.0961 18.2002 32.0078 18.2002 31.9186C18.2002 31.6624 18.3458 31.4287 18.5754 31.3125L19.1956 31.0031C19.721 30.7403 20.3158 30.6495 20.8957 30.7435C21.4756 30.8375 22.0112 31.1114 22.4268 31.5266L23.6798 32.7796C24.2049 33.3046 24.5 34.0167 24.5002 34.7592V39.2001M30.334 28H25.6664V24.7338H22.4002V20.0662H25.6664V16.8H30.334V20.0662H33.6002V24.7338H30.334V28Z" stroke="#14A2F1" stroke-width="1.5" stroke-linecap="round" stroke-linejoin="round"/>
</svg>
