<svg width="16" height="17" viewBox="0 0 16 17" fill="none" xmlns="http://www.w3.org/2000/svg">
<g clip-path="url(#clip0_256_1363)">
<path d="M9.65772 8.67429C9.65772 7.80958 8.95097 7.10597 8.08231 7.10597C7.21375 7.10597 6.50703 7.8096 6.50703 8.67429C6.50703 9.53921 7.21375 10.2427 8.08231 10.2427C8.95097 10.2427 9.65772 9.53921 9.65772 8.67429ZM11.9982 0.510254H4.00279C1.79996 0.510254 0.0078125 2.29461 0.0078125 4.48781V5.59606H5.88642C6.50673 5.15613 7.26431 4.89624 8.08231 4.89624C8.90029 4.89624 9.65799 5.15613 10.2783 5.59606H15.9932V4.48781C15.9932 2.29459 14.201 0.510254 11.9982 0.510254ZM13.6161 4.29321C13.6161 4.53627 13.4164 4.73517 13.1722 4.73517H11.8007C11.5565 4.73517 11.3568 4.53627 11.3568 4.29321V2.92758C11.3568 2.68454 11.5565 2.48563 11.8007 2.48563H13.1722C13.4164 2.48563 13.6161 2.68451 13.6161 2.92758V4.29321ZM11.8771 8.67429C11.8771 10.7577 10.1747 12.4524 8.08229 12.4524C5.98985 12.4524 4.28757 10.7577 4.28757 8.67429C4.28757 8.10072 4.41733 7.55677 4.64809 7.0692H0.0078125V12.5134C0.0078125 14.7068 1.79996 16.491 4.00279 16.491H11.9982C14.201 16.491 15.9932 14.7067 15.9932 12.5134V7.0692H11.5166C11.7474 7.55677 11.8771 8.10072 11.8771 8.67429Z" fill="black"/>
</g>
<defs>
<clipPath id="clip0_256_1363">
<rect width="16" height="16" fill="white" transform="translate(0 0.5)"/>
</clipPath>
</defs>
</svg>
