<svg width="56" height="56" viewBox="0 0 56 56" fill="none" xmlns="http://www.w3.org/2000/svg">
<rect width="56" height="56" rx="8" fill="#E6F6FF"/>
<path d="M40.6002 32.2H44.8002V44.8H28.0002V32.2H32.2002V28H40.6002V32.2ZM34.3002 32.2H38.5002V30.1H34.3002V32.2ZM42.7002 38.5H40.6002V40.6H38.5002V38.5H34.3002V40.6H32.2002V38.5H30.1002V42.7H42.7002V38.5ZM30.1002 34.3V36.4H42.7002V34.3H30.1002ZM25.9002 25.9C25.9002 26.9172 25.676 27.8688 25.2275 28.7547C24.7791 29.6407 24.1393 30.3844 23.308 30.986C23.8002 31.2375 24.265 31.5274 24.7025 31.8555C25.14 32.1836 25.5393 32.55 25.9002 32.9547V38.5C25.9002 37.636 25.7361 36.8211 25.408 36.0555C25.0799 35.2899 24.6314 34.6227 24.0627 34.054C23.4939 33.4852 22.8213 33.0313 22.0447 32.6922C21.2682 32.3532 20.4533 32.1891 19.6002 32.2C18.7252 32.2 17.9104 32.3641 17.1557 32.6922C16.401 33.0204 15.7338 33.4688 15.1541 34.0375C14.5744 34.6063 14.1205 35.279 13.7924 36.0555C13.4643 36.8321 13.3002 37.6469 13.3002 38.5H11.2002C11.2002 37.7016 11.3096 36.9305 11.5283 36.1868C11.7471 35.443 12.0588 34.7375 12.4635 34.0704C12.8682 33.4032 13.3658 32.8125 13.9564 32.2985C14.5471 31.7844 15.1924 31.3415 15.8924 30.9696C15.0721 30.379 14.4377 29.6407 13.9893 28.7547C13.5408 27.8688 13.3111 26.9172 13.3002 25.9C13.3002 25.036 13.4643 24.2211 13.7924 23.4555C14.1205 22.6899 14.5689 22.0227 15.1377 21.454C15.7064 20.8852 16.3736 20.4313 17.1393 20.0922C17.9049 19.7532 18.7252 19.5891 19.6002 19.6C20.3877 19.6 21.1369 19.7368 21.8479 20.0102C22.5588 20.2836 23.2096 20.6883 23.8002 21.2243C24.1502 20.9071 24.5385 20.6282 24.965 20.3875C24.5932 20.0047 24.3088 19.5618 24.1119 19.0586C23.915 18.5555 23.8111 18.036 23.8002 17.5C23.8002 16.9204 23.9096 16.379 24.1283 15.8758C24.3471 15.3727 24.6479 14.9243 25.0307 14.5305C25.4135 14.1368 25.8564 13.836 26.3596 13.6282C26.8627 13.4204 27.4096 13.311 28.0002 13.3C28.5799 13.3 29.1213 13.4094 29.6244 13.6282C30.1275 13.8469 30.576 14.1477 30.9697 14.5305C31.3635 14.9133 31.6643 15.3563 31.8721 15.8594C32.0799 16.3625 32.1893 16.9094 32.2002 17.5C32.2002 18.036 32.1018 18.5555 31.9049 19.0586C31.708 19.5618 31.4182 20.0047 31.0354 20.3875C31.9432 20.8907 32.6814 21.5688 33.2502 22.4219C33.8189 21.5688 34.5572 20.8907 35.465 20.3875C35.0932 20.0047 34.8088 19.5618 34.6119 19.0586C34.415 18.5555 34.3111 18.036 34.3002 17.5C34.3002 16.9204 34.4096 16.379 34.6283 15.8758C34.8471 15.3727 35.1479 14.9243 35.5307 14.5305C35.9135 14.1368 36.3564 13.836 36.8596 13.6282C37.3627 13.4204 37.9096 13.311 38.5002 13.3C39.0799 13.3 39.6213 13.4094 40.1244 13.6282C40.6275 13.8469 41.076 14.1477 41.4697 14.5305C41.8635 14.9133 42.1643 15.3563 42.3721 15.8594C42.5799 16.3625 42.6893 16.9094 42.7002 17.5C42.7002 18.036 42.6018 18.5555 42.4049 19.0586C42.208 19.5618 41.9182 20.0047 41.5354 20.3875C42.0385 20.661 42.4924 20.9946 42.8971 21.3883C43.3018 21.7821 43.6408 22.2141 43.9143 22.6844C44.1877 23.1547 44.4064 23.6688 44.5705 24.2266C44.7346 24.7844 44.8111 25.3422 44.8002 25.9H42.7002C42.7002 25.3204 42.5908 24.779 42.3721 24.2758C42.1533 23.7727 41.8525 23.3243 41.4697 22.9305C41.0869 22.5368 40.6439 22.236 40.1408 22.0282C39.6377 21.8204 39.0908 21.711 38.5002 21.7C37.9205 21.7 37.3791 21.8094 36.876 22.0282C36.3729 22.2469 35.9244 22.5477 35.5307 22.9305C35.1369 23.3133 34.8361 23.7563 34.6283 24.2594C34.4205 24.7625 34.3111 25.3094 34.3002 25.9H32.2002C32.2002 25.3204 32.0908 24.779 31.8721 24.2758C31.6533 23.7727 31.3525 23.3243 30.9697 22.9305C30.5869 22.5368 30.1439 22.236 29.6408 22.0282C29.1377 21.8204 28.5908 21.711 28.0002 21.7C27.4643 21.7 26.9447 21.7985 26.4416 21.9954C25.9385 22.1922 25.4955 22.4821 25.1127 22.8649C25.3752 23.3243 25.5721 23.811 25.7033 24.325C25.8346 24.8391 25.9002 25.3641 25.9002 25.9ZM38.5002 15.4C38.2049 15.4 37.9314 15.4547 37.6799 15.5641C37.4283 15.6735 37.2096 15.8211 37.0236 16.0071C36.8377 16.193 36.6846 16.4172 36.5643 16.6797C36.4439 16.9422 36.3893 17.2157 36.4002 17.5C36.4002 17.7954 36.4549 18.0688 36.5643 18.3204C36.6736 18.5719 36.8213 18.7907 37.0072 18.9766C37.1932 19.1625 37.4174 19.3157 37.6799 19.436C37.9424 19.5563 38.2158 19.611 38.5002 19.6C38.7955 19.6 39.0689 19.5454 39.3205 19.436C39.5721 19.3266 39.7908 19.179 39.9768 18.993C40.1627 18.8071 40.3158 18.5829 40.4361 18.3204C40.5564 18.0579 40.6111 17.7844 40.6002 17.5C40.6002 17.2047 40.5455 16.9313 40.4361 16.6797C40.3268 16.4282 40.1791 16.2094 39.9932 16.0235C39.8072 15.8375 39.583 15.6844 39.3205 15.5641C39.058 15.4438 38.7846 15.3891 38.5002 15.4ZM28.0002 15.4C27.7049 15.4 27.4314 15.4547 27.1799 15.5641C26.9283 15.6735 26.7096 15.8211 26.5236 16.0071C26.3377 16.193 26.1846 16.4172 26.0643 16.6797C25.9439 16.9422 25.8893 17.2157 25.9002 17.5C25.9002 17.7954 25.9549 18.0688 26.0643 18.3204C26.1736 18.5719 26.3213 18.7907 26.5072 18.9766C26.6932 19.1625 26.9174 19.3157 27.1799 19.436C27.4424 19.5563 27.7158 19.611 28.0002 19.6C28.2955 19.6 28.5689 19.5454 28.8205 19.436C29.0721 19.3266 29.2908 19.179 29.4768 18.993C29.6627 18.8071 29.8158 18.5829 29.9361 18.3204C30.0564 18.0579 30.1111 17.7844 30.1002 17.5C30.1002 17.2047 30.0455 16.9313 29.9361 16.6797C29.8268 16.4282 29.6791 16.2094 29.4932 16.0235C29.3072 15.8375 29.083 15.6844 28.8205 15.5641C28.558 15.4438 28.2846 15.3891 28.0002 15.4ZM19.6002 30.1C20.1799 30.1 20.7213 29.9907 21.2244 29.7719C21.7275 29.5532 22.176 29.2524 22.5697 28.8696C22.9635 28.4868 23.2643 28.0438 23.4721 27.5407C23.6799 27.0375 23.7893 26.4907 23.8002 25.9C23.8002 25.3204 23.6908 24.779 23.4721 24.2758C23.2533 23.7727 22.9525 23.3243 22.5697 22.9305C22.1869 22.5368 21.7439 22.236 21.2408 22.0282C20.7377 21.8204 20.1908 21.711 19.6002 21.7C19.0205 21.7 18.4791 21.8094 17.976 22.0282C17.4729 22.2469 17.0244 22.5477 16.6307 22.9305C16.2369 23.3133 15.9361 23.7563 15.7283 24.2594C15.5205 24.7625 15.4111 25.3094 15.4002 25.9C15.4002 26.4797 15.5096 27.0211 15.7283 27.5243C15.9471 28.0274 16.2479 28.4758 16.6307 28.8696C17.0135 29.2633 17.4564 29.5641 17.9596 29.7719C18.4627 29.9797 19.0096 30.0891 19.6002 30.1Z" fill="#14A2F1"/>
</svg>
