<svg width="87" height="87" viewBox="0 0 87 87" fill="none" xmlns="http://www.w3.org/2000/svg">
<path d="M77.1873 52.0078C75.502 51.0111 73.3916 50.8499 71.5083 51.6852C71.5083 51.6852 71.501 51.6927 71.4716 51.6999C71.4643 51.7071 71.4496 51.7071 71.4422 51.7146C71.4495 51.7146 71.4422 51.7146 71.4202 51.7218L71.4055 51.7291L71.3982 51.7364C71.369 51.7437 71.3396 51.7584 71.303 51.7731C70.6142 52.0807 67.9249 53.2753 58.7799 57.3202V57.3055C56.7281 54.3965 53.1156 56.5434 48.2207 56.9683C40.6292 53.0774 33.4627 49.2671 25.6001 49.5087V65.0802H26.9044L43.2306 71.5287C45.898 72.5838 48.9242 72.3128 51.3717 70.8106L77.2019 54.8729C78.2644 54.2133 78.2718 52.6452 77.1873 52.0078ZM22.6075 47.5913H21.2971V46.611C21.2971 45.8448 20.6762 45.2239 19.91 45.2239H10.5073C9.74107 45.2239 9.12012 45.8448 9.12012 46.611V68.83C9.12012 69.5962 9.74107 70.2172 10.5073 70.2172H19.91C20.6762 70.2172 21.2971 69.5962 21.2971 68.83V67.8498H22.6075C23.4522 67.8498 24.137 67.1649 24.137 66.3202V49.1209C24.1371 48.2762 23.4522 47.5913 22.6075 47.5913ZM17.0538 68.0896C16.111 68.0896 15.3388 67.3174 15.3388 66.3747C15.3388 65.4321 16.111 64.6598 17.0538 64.6598C17.9964 64.6598 18.7687 65.4321 18.7687 66.3747C18.7687 67.3174 17.9964 68.0896 17.0538 68.0896Z" fill="#D2D4DA"/>
<path d="M45.3683 34.7976C46.3964 34.7976 47.2298 33.9642 47.2298 32.9362C47.2298 31.9081 46.3964 31.0747 45.3683 31.0747C44.3402 31.0747 43.5068 31.9081 43.5068 32.9362C43.5068 33.9642 44.3402 34.7976 45.3683 34.7976Z" fill="#D2D4DA"/>
<path d="M50.9523 34.7976C51.9804 34.7976 52.8138 33.9642 52.8138 32.9362C52.8138 31.9081 51.9804 31.0747 50.9523 31.0747C49.9242 31.0747 49.0908 31.9081 49.0908 32.9362C49.0908 33.9642 49.9242 34.7976 50.9523 34.7976Z" fill="#D2D4DA"/>
<path d="M56.5373 34.7976C57.5653 34.7976 58.3987 33.9642 58.3987 32.9362C58.3987 31.9081 57.5653 31.0747 56.5373 31.0747C55.5092 31.0747 54.6758 31.9081 54.6758 32.9362C54.6758 33.9642 55.5092 34.7976 56.5373 34.7976Z" fill="#D2D4DA"/>
<path d="M44.1148 43.4716C43.8703 43.4719 43.6282 43.4239 43.4023 43.3303C43.1764 43.2368 42.9712 43.0995 42.7985 42.9264L34.1116 34.2396C33.3847 33.5126 33.3847 32.334 34.1116 31.607L42.7985 22.9202C43.5255 22.1933 44.704 22.1933 45.431 22.9202C46.1578 23.6471 46.1578 24.8257 45.431 25.5527L38.0604 32.9233L45.431 40.2938C46.1578 41.0207 46.1578 42.1994 45.431 42.9263C45.2584 43.0995 45.0532 43.2367 44.8273 43.3303C44.6014 43.4239 44.3593 43.4719 44.1148 43.4716ZM57.7656 43.4716C58.0101 43.4719 58.2522 43.4239 58.4781 43.3303C58.704 43.2368 58.9092 43.0995 59.0819 42.9264L67.7688 34.2396C68.4957 33.5126 68.4957 32.334 67.7688 31.607L59.0819 22.9202C58.3549 22.1933 57.1764 22.1933 56.4494 22.9202C55.7226 23.6471 55.7226 24.8257 56.4494 25.5527L63.82 32.9233L56.4494 40.2938C55.7226 41.0207 55.7226 42.1994 56.4494 42.9263C56.622 43.0995 56.8272 43.2367 57.0531 43.3303C57.279 43.4239 57.5211 43.4719 57.7656 43.4716Z" fill="#D2D4DA"/>
</svg>
