<svg width="75" height="75" viewBox="0 0 75 75" fill="none" xmlns="http://www.w3.org/2000/svg">
<path fill-rule="evenodd" clip-rule="evenodd" d="M51.5844 25.0852C52.5248 27.8057 53.2022 30.5831 53.4248 33.4618C53.7014 37.0331 53.5748 40.5792 52.8219 44.0918C52.8014 44.1885 52.758 44.2793 52.7258 44.3731C52.4897 44.3737 52.2488 44.3444 52.018 44.3801C50.0674 44.6866 48.1186 45.0042 46.1697 45.32C44.1553 45.6463 42.1379 45.9598 40.127 46.3084C39.4145 46.4315 38.5326 46.2844 38.2449 47.27C38.2367 47.2969 38.1547 47.3016 38.1072 47.3168L38.2045 41.4276L38.1055 27.2174L39.0441 27.0563C40.5793 26.8049 42.1145 26.55 43.6508 26.3057C45.4842 26.0145 47.3193 25.7315 49.1539 25.4473C49.9631 25.3213 50.7734 25.2059 51.5844 25.0852Z" fill="#439934"/>
<path fill-rule="evenodd" clip-rule="evenodd" d="M36.1691 64.4847C35.1789 63.6333 34.1541 62.8194 33.2049 61.9241C28.0972 57.1065 24.3613 51.4364 22.5215 44.6003C22.0146 42.7188 21.6765 40.8069 21.5681 38.8628C21.492 37.5022 21.3818 36.1294 21.4779 34.7759C21.734 31.1759 22.2543 27.6104 23.3101 24.1429L23.3681 24.062C23.4707 24.1985 23.6183 24.3192 23.6705 24.4733C24.7012 27.5085 25.7242 30.546 26.742 33.5853C29.94 43.136 33.134 52.6892 36.3373 62.2376C36.4 62.4239 36.5623 62.5769 36.6789 62.745L36.1691 64.4847Z" fill="#45A538"/>
<path fill-rule="evenodd" clip-rule="evenodd" d="M51.5852 25.0853C50.7742 25.206 49.9633 25.3214 49.1541 25.4462C47.3195 25.7304 45.4844 26.0134 43.651 26.3046C42.1147 26.5489 40.5795 26.8038 39.0444 27.0552L38.1057 27.2163L38.0987 26.604C38.0676 26.1007 38.0143 25.5979 38.0084 25.0946C37.968 21.8849 37.9428 18.6751 37.9029 15.4653C37.8783 13.4562 37.8414 11.4476 37.8004 9.43896C37.7752 8.19092 37.7483 6.94229 37.692 5.696C37.6615 5.02627 37.5537 4.36006 37.5098 3.69033C37.4852 3.30537 37.5192 2.91748 37.5268 2.53076C38.0055 3.4583 38.4737 4.39287 38.9658 5.31338C39.7434 6.76885 40.982 7.84111 42.0971 9.01123C46.5051 13.6355 49.6346 19.012 51.5852 25.0853Z" fill="#46A037"/>
<path fill-rule="evenodd" clip-rule="evenodd" d="M38.107 47.3161C38.1545 47.3008 38.2371 47.2962 38.2447 47.2692C38.5324 46.2837 39.4143 46.4307 40.1268 46.3077C42.1377 45.9596 44.1551 45.6456 46.1695 45.3192C48.1184 45.0034 50.0672 44.6858 52.0178 44.3794C52.2486 44.343 52.4895 44.3729 52.7256 44.3723C52.3611 45.6731 52.074 47.002 51.6117 48.2671C51.0867 49.702 50.4516 51.1024 49.7772 52.4753C48.7675 54.5229 47.5179 56.4433 46.0547 58.1958C44.9303 59.5481 43.677 60.7979 42.4207 62.0325C41.7264 62.7151 40.9078 63.2712 40.1461 63.8846L39.9486 63.7499L39.2373 63.1417L38.5014 61.5286C37.9987 59.6469 37.7244 57.7114 37.6846 55.7641L37.698 55.4354L37.7982 54.0139C37.8316 53.5288 37.8762 53.0442 37.8967 52.5579C37.9723 50.8106 38.0379 49.0633 38.107 47.3161Z" fill="#409433"/>
<path fill-rule="evenodd" clip-rule="evenodd" d="M38.1066 47.3163C38.0375 49.0636 37.9719 50.8108 37.8975 52.5587C37.877 53.045 37.8324 53.5296 37.799 54.0147L37.3508 54.1841C36.3553 51.2532 35.3592 48.3534 34.3848 45.446C32.7734 40.636 31.1814 35.8185 29.5725 31.0073C28.2729 27.124 26.9643 23.2437 25.6467 19.3665C25.5852 19.1849 25.4082 19.0431 25.2852 18.8825L28.1539 13.6079C28.2523 13.779 28.3824 13.939 28.4445 14.1229C29.7732 18.05 31.095 21.9793 32.4102 25.9108C34.1187 31.0261 35.8168 36.1454 37.5242 41.2612C37.5922 41.4657 37.7047 41.6544 37.8119 41.8835L38.2045 41.4265L38.1066 47.3163Z" fill="#4FAA41"/>
<path fill-rule="evenodd" clip-rule="evenodd" d="M25.2863 18.8831C25.4094 19.0436 25.5857 19.1854 25.6479 19.367C26.9655 23.2443 28.2741 27.1245 29.5736 31.0079C31.1826 35.819 32.7746 40.6366 34.3859 45.4465C35.3598 48.3534 36.3559 51.2538 37.352 54.1846L37.8002 54.0153L37.7 55.4368L37.6092 55.7643C37.4533 57.3206 37.3221 58.8803 37.1322 60.4331C37.0367 61.2112 36.834 61.9752 36.6799 62.7457C36.5639 62.5776 36.401 62.4247 36.3383 62.2383C33.135 52.6893 29.941 43.1368 26.743 33.586C25.7255 30.5465 24.7017 27.5092 23.6715 24.4741C23.6193 24.32 23.4723 24.1993 23.3691 24.0627L25.2863 18.8831Z" fill="#4AA73C"/>
<path fill-rule="evenodd" clip-rule="evenodd" d="M38.2039 41.427L37.8113 41.884C37.7041 41.6549 37.5916 41.4656 37.5236 41.2617C35.8168 36.1459 34.1182 31.0266 32.4096 25.9113C31.0945 21.9798 29.7726 18.0505 28.4439 14.1234C28.3824 13.9395 28.2523 13.7789 28.1533 13.6084L31.7012 8.94141C31.8131 9.09082 31.9725 9.22383 32.0305 9.39199C33.0154 12.2754 33.9916 15.1623 34.9619 18.051C35.8684 20.7486 36.7613 23.4504 37.6783 26.1445C37.7398 26.325 37.9537 26.4527 38.0967 26.6051L38.1037 27.2174C38.1377 31.9529 38.1711 36.6902 38.2039 41.427Z" fill="#57AE47"/>
<path fill-rule="evenodd" clip-rule="evenodd" d="M38.0986 26.604C37.9557 26.4516 37.7418 26.3239 37.6803 26.1434C36.7633 23.4493 35.8703 20.7475 34.9639 18.0499C33.9936 15.1612 33.0174 12.2749 32.0324 9.39087C31.9744 9.22271 31.815 9.0897 31.7031 8.94028C32.8568 7.8106 33.9748 6.64048 35.1748 5.56294C36.2418 4.60552 37.0996 3.57896 37.1389 2.06606C37.1406 2.00337 37.1734 1.94067 37.2238 1.76489L37.5279 2.53013C37.5203 2.91743 37.4857 3.30474 37.5109 3.6897C37.5549 4.35942 37.6627 5.02563 37.6932 5.69536C37.7494 6.94165 37.7764 8.19028 37.8016 9.43833C37.842 11.4469 37.8789 13.4555 37.9041 15.4647C37.9434 18.6745 37.9691 21.8842 38.0096 25.094C38.0143 25.5985 38.067 26.1006 38.0986 26.604Z" fill="#60B24F"/>
<path fill-rule="evenodd" clip-rule="evenodd" d="M36.6787 62.7451C36.8328 61.9746 37.0355 61.21 37.1311 60.4324C37.3215 58.8803 37.4521 57.3199 37.608 55.7637L37.6467 55.7578L37.6854 55.7643C37.7252 57.7116 37.9995 59.647 38.5021 61.5287C38.399 61.6646 38.2531 61.7859 38.1986 61.9395C37.7727 63.1406 37.3713 64.3512 36.943 65.5523C36.8844 65.7164 36.7215 65.8441 36.6066 65.9883L36.1689 64.4848L36.6787 62.7451Z" fill="#A9AA88"/>
<path fill-rule="evenodd" clip-rule="evenodd" d="M36.6074 65.9889C36.7223 65.8447 36.8857 65.717 36.9437 65.5529C37.3721 64.3518 37.774 63.1418 38.1994 61.94C38.2539 61.7865 38.3992 61.6652 38.5029 61.5293L39.2383 63.143C39.093 63.3492 38.8926 63.535 38.8117 63.7646L37.4031 67.9008C37.3451 68.0666 37.1471 68.1838 37.0146 68.3238L36.6074 65.9889Z" fill="#B6B598"/>
<path fill-rule="evenodd" clip-rule="evenodd" d="M37.0146 68.3232C37.1477 68.1837 37.3451 68.066 37.4031 67.9001L38.8117 63.764C38.892 63.5349 39.093 63.3486 39.2383 63.1423L39.9502 63.75C39.6062 64.0898 39.4152 64.4824 39.5301 64.9787L39.3139 65.6865C39.2154 65.8078 39.073 65.9132 39.0244 66.0521C38.5328 67.4601 38.0635 68.8757 37.5684 70.2837C37.5057 70.4624 37.3316 70.6025 37.2086 70.7595C37.1447 69.9468 37.0797 69.1359 37.0146 68.3232Z" fill="#C2C1A7"/>
<path fill-rule="evenodd" clip-rule="evenodd" d="M37.2087 70.7596C37.3311 70.602 37.5052 70.4619 37.5685 70.2838C38.0636 68.8764 38.5329 67.4607 39.0245 66.0521C39.0731 65.9139 39.2149 65.8078 39.314 65.6865L39.0157 68.9355C38.936 69.0275 38.8206 69.1078 38.7825 69.215C38.4456 70.1607 38.128 71.1135 37.7899 72.0592C37.7202 72.2543 37.5866 72.4266 37.4823 72.6088C37.3897 72.4875 37.2239 72.3703 37.2163 72.2437C37.1864 71.751 37.2069 71.2547 37.2087 70.7596Z" fill="#CECDB7"/>
<path fill-rule="evenodd" clip-rule="evenodd" d="M37.4814 72.6088C37.5857 72.426 37.7193 72.2537 37.7891 72.0592C38.1277 71.1141 38.4447 70.1613 38.7816 69.215C38.8197 69.1078 38.9357 69.0281 39.0148 68.9355L39.0219 71.0684L38.3082 72.8988L37.4814 72.6088Z" fill="#DBDAC7"/>
<path fill-rule="evenodd" clip-rule="evenodd" d="M38.3086 72.8993L39.0223 71.0688L39.1693 73.2345L38.3086 72.8993Z" fill="#EBE9DC"/>
<path fill-rule="evenodd" clip-rule="evenodd" d="M39.5296 64.9792C39.4147 64.4829 39.6052 64.0897 39.9497 63.7505L40.1472 63.8853L39.5296 64.9792Z" fill="#CECDB7"/>
<path fill-rule="evenodd" clip-rule="evenodd" d="M37.6848 55.7649L37.6461 55.7584L37.6074 55.7643L37.6982 55.4368L37.6848 55.7649Z" fill="#4FAA41"/>
</svg>
