<svg width="93" height="64" viewBox="0 0 93 64" fill="none" xmlns="http://www.w3.org/2000/svg">
<path d="M38.2625 41.6941C36.8589 49.2734 35.0074 54.7813 32.7093 58.2173C30.9186 60.8648 28.9571 62.1886 26.821 62.1886C26.2516 62.1886 25.5494 62.0179 24.7162 61.6788V59.8517C25.1233 59.911 25.6009 59.9426 26.1502 59.9426C27.1467 59.9426 27.9498 59.6686 28.5608 59.1215C29.2925 58.455 29.6586 57.7058 29.6586 56.8755C29.6586 56.3084 29.373 55.1448 28.8044 53.3845L25.0215 41.6941H28.4077L31.1228 50.4374C31.7327 52.4226 31.9871 53.8084 31.8854 54.5983C33.3703 50.6511 34.4077 46.3496 34.9979 41.6941H38.2625ZM23.3104 56.8152H19.8635C19.7423 51.0253 19.4063 45.5809 18.8571 40.4809H18.8267L13.5786 56.8152H10.9541L5.73772 40.4809H5.70699C5.31993 45.3787 5.07643 50.8232 4.97488 56.8152H1.83203C2.03513 49.5279 2.5434 42.6967 3.35686 36.3201H7.62913L12.6021 51.3792H12.6326L17.6361 36.3201H21.7239C22.619 43.7883 23.1476 50.6216 23.31 56.8152" fill="#00758F"/>
<path d="M84.1451 56.8154H74.3523V36.3202H77.6476V54.2942H84.1451V56.8154ZM59.5236 52.7154C58.6894 51.3794 58.2715 49.2356 58.2715 46.2794C58.2715 41.1187 59.8484 38.5366 63.0007 38.5366C64.6489 38.5366 65.8584 39.1542 66.632 40.388C67.4651 41.7246 67.883 43.8499 67.883 46.7647C67.883 51.9668 66.3061 54.5689 63.1538 54.5689C61.5062 54.5689 60.2961 53.9518 59.5236 52.7154ZM71.7881 57.3097L68.0026 55.452C68.3397 55.1769 68.6598 54.8802 68.9495 54.5366C70.5568 52.6563 71.3612 49.8732 71.3612 46.1885C71.3612 39.4082 68.6863 36.0161 63.3372 36.0161C60.7135 36.0161 58.6687 36.8759 57.2044 38.5979C55.5967 40.4806 54.7939 43.2532 54.7939 46.9169C54.7939 50.5195 55.5052 53.1624 56.929 54.8412C58.2263 56.3587 60.1882 57.1185 62.8146 57.1185C63.7945 57.1185 64.6935 56.9984 65.5107 56.7583L70.4403 59.6131L71.7844 57.3095M53.3615 51.1344C53.3615 52.8726 52.7198 54.2995 51.4406 55.4159C50.1604 56.5275 48.4404 57.0847 46.2866 57.0847C44.2721 57.0847 42.3199 56.4433 40.4287 55.1711L41.3134 53.4106C42.9408 54.2201 44.4136 54.6244 45.7358 54.6244C46.9762 54.6244 47.947 54.3497 48.6494 53.807C49.3501 53.2603 49.7701 52.4979 49.7701 51.5308C49.7701 50.3139 48.9173 49.2737 47.3526 48.4011C45.9081 47.6122 43.0211 45.9652 43.0211 45.9652C41.457 44.8297 40.6727 43.6113 40.6727 41.6039C40.6727 39.9436 41.2576 38.6017 42.4257 37.5807C43.5964 36.5576 45.1069 36.0461 46.9565 36.0461C48.8684 36.0461 50.607 36.5538 52.1727 37.5657L51.3774 39.3246C50.0376 38.7593 48.7164 38.4756 47.4138 38.4756C46.3568 38.4756 45.5423 38.7281 44.9745 39.2361C44.4035 39.7398 44.0504 40.3879 44.0504 41.1779C44.0504 42.3917 44.9218 43.4445 46.5307 44.3341C47.9933 45.1234 50.951 46.8022 50.951 46.8022C52.5598 47.9357 53.3615 49.1441 53.3615 51.1344Z" fill="#F29111"/>
<path d="M86.4951 56.8132H87.0412V54.7279H87.7557V54.302H85.7529V54.7279H86.4951V56.8132ZM90.6501 56.8132H91.1648V54.302H90.3907L89.7607 56.0137L89.0748 54.302H88.3289V56.8132H88.8159V54.902H88.8435L89.5618 56.8132H89.9329L90.6501 54.902V56.8132Z" fill="#F29111"/>
<path d="M56.7611 1.81164C55.8904 1.79876 55.1312 2.12515 54.7391 3.08149C54.067 4.69207 55.7345 6.27615 56.3071 7.0936C56.7298 7.66238 57.2776 8.30733 57.5748 8.95019C57.7492 9.37135 57.7995 9.8179 57.9745 10.2629C58.3722 11.3523 58.7446 12.5662 59.2683 13.5821C59.541 14.1021 59.8394 14.6473 60.1876 15.1156C60.3886 15.3897 60.7357 15.5118 60.8107 15.9589C60.4635 16.4536 60.4363 17.1968 60.2375 17.8164C59.3422 20.6148 59.6899 24.0814 60.9595 26.1364C61.3566 26.7554 62.3036 28.1176 63.5727 27.5963C64.6924 27.1514 64.4435 25.7399 64.7667 24.5025C64.8411 24.2032 64.7914 24.0069 64.9402 23.8091V23.8591C65.2885 24.5514 65.6379 25.2185 65.9612 25.9142C66.7337 27.1264 68.0758 28.3896 69.1966 29.2307C69.7921 29.6782 70.2654 30.4446 71.0119 30.7179V30.6429H70.9629C70.8129 30.4207 70.5895 30.3211 70.3901 30.1485C69.9425 29.7025 69.4462 29.1572 69.0963 28.6623C68.0516 27.2761 67.1298 25.74 66.3105 24.1553C65.9112 23.3859 65.5634 22.5448 65.2396 21.7776C65.0908 21.4818 65.0907 21.0348 64.8413 20.8866C64.4671 21.4308 63.9211 21.9017 63.6478 22.5683C63.1746 23.6343 63.1251 24.9464 62.9496 26.3091C62.8507 26.335 62.9007 26.3093 62.8507 26.3586C62.0554 26.1606 61.7816 25.3435 61.4823 24.6524C60.7358 22.8919 60.6103 20.069 61.2584 18.0381C61.4318 17.5191 62.1805 15.8848 61.8806 15.3896C61.7302 14.9171 61.2328 14.6471 60.9595 14.2741C60.6368 13.8037 60.2866 13.2104 60.0649 12.6892C59.4673 11.303 59.1669 9.76709 58.522 8.38085C58.2232 7.73588 57.6993 7.06741 57.2777 6.4743C56.8039 5.80552 56.2821 5.33518 55.9083 4.54365C55.785 4.27063 55.6107 3.82442 55.809 3.52812C55.8579 3.32971 55.9589 3.25527 56.1583 3.20553C56.4799 2.93305 57.4018 3.27906 57.7245 3.42773C58.6459 3.7981 59.4172 4.14641 60.1876 4.66546C60.5364 4.9136 60.9097 5.38433 61.3569 5.50919H61.8806C62.6765 5.68115 63.5729 5.55711 64.3199 5.78092C65.6379 6.20155 66.832 6.82059 67.9028 7.48937C71.1614 9.54491 73.8486 12.4679 75.6643 15.9589C75.9636 16.5277 76.0891 17.0479 76.3624 17.641C76.885 18.8569 77.533 20.0953 78.0545 21.2828C78.5766 22.4468 79.0751 23.6343 79.8226 24.6015C80.1948 25.1207 81.6883 25.3931 82.3603 25.6657C82.8569 25.8878 83.6294 26.0862 84.0776 26.3582C84.9235 26.8773 85.7679 27.4725 86.5654 28.043C86.9626 28.3402 88.2068 28.9587 88.2818 29.4547L88.2822 29.4552C86.2906 29.4056 84.7481 29.6033 83.4545 30.1485C83.0813 30.2969 82.4846 30.2968 82.4336 30.7674C82.634 30.9652 82.6583 31.2871 82.8337 31.5607C83.1314 32.0559 83.6529 32.7234 84.1266 33.0711C84.6492 33.4675 85.1717 33.8622 85.7198 34.2088C86.6896 34.8057 87.7849 35.1509 88.7291 35.7455C89.2783 36.0917 89.8239 36.5372 90.3731 36.9096C90.6458 37.1076 90.8185 37.43 91.1684 37.5526V37.4771C90.9929 37.2549 90.9443 36.9333 90.771 36.6843C90.5227 36.4386 90.2732 36.2143 90.0238 35.9677C89.3018 35.0021 88.4048 34.1607 87.4366 33.4673C86.6397 32.921 84.897 32.1779 84.5748 31.2644C84.5748 31.2644 84.5485 31.2384 84.524 31.214C85.0716 31.1638 85.7201 30.9653 86.2422 30.8151C87.087 30.5929 87.8582 30.6429 88.7291 30.4207C89.1278 30.3209 89.526 30.1967 89.9258 30.0749V29.8505C89.4755 29.4057 89.1536 28.8102 88.681 28.3897C87.413 27.3005 86.0178 26.2364 84.5748 25.3435C83.8023 24.8482 82.8068 24.5278 81.9854 24.1058C81.6882 23.957 81.1911 23.8837 81.0162 23.6347C80.568 23.0901 80.318 22.373 79.9952 21.7281C79.2743 20.3676 78.5766 18.8574 77.9556 17.4188C77.508 16.4538 77.2342 15.4887 76.6865 14.5967C74.1223 10.3861 71.3362 7.83677 67.0563 5.33519C66.1354 4.81456 65.0407 4.59216 63.8721 4.31967C63.249 4.29375 62.6276 4.2454 62.0056 4.22107C61.6068 4.04698 61.2078 3.57597 60.8601 3.35322C59.9732 2.79634 58.2123 1.83312 56.7611 1.81164ZM62.9002 7.93288C62.4781 7.93288 62.1801 7.98382 61.8797 8.05737V8.10689H61.9283C62.1292 8.50213 62.4782 8.77683 62.7249 9.12286C62.9253 9.51917 63.0996 9.91379 63.2985 10.3106C63.3229 10.2863 63.3466 10.2606 63.3466 10.2606C63.6975 10.0141 63.8717 9.61815 63.8717 9.02292C63.7212 8.84831 63.6977 8.67629 63.5723 8.50222C63.4234 8.25513 63.0996 8.13129 62.9002 7.93288Z" fill="#00758F"/>
</svg>
