<svg width="101" height="62" viewBox="0 0 101 62" fill="none" xmlns="http://www.w3.org/2000/svg">
<g clip-path="url(#clip0_316_953)">
<path d="M50.3118 61.5579C49.9726 61.5579 49.6558 61.4675 49.3616 61.3091L46.3525 59.5218C45.8998 59.2728 46.1262 59.1823 46.262 59.1371C46.8728 58.9335 46.986 58.8881 47.6195 58.5263C47.6874 58.4809 47.778 58.5036 47.8458 58.5488L50.1536 59.929C50.2441 59.9742 50.3572 59.9742 50.425 59.929L59.4527 54.7024C59.5431 54.6572 59.5886 54.5666 59.5886 54.4536V44.0232C59.5886 43.9099 59.5431 43.8196 59.4527 43.7742L50.425 38.5703C50.3345 38.5249 50.2214 38.5249 50.1536 38.5703L41.1259 43.7742C41.0355 43.8194 40.99 43.9326 40.99 44.023V54.4534C40.99 54.544 41.0355 54.657 41.1259 54.7024L43.5922 56.1278C44.9271 56.8065 45.7642 56.0146 45.7642 55.2228V44.928C45.7642 44.7924 45.8773 44.6565 46.0357 44.6565H47.1896C47.3254 44.6565 47.4611 44.7697 47.4611 44.928V55.2228C47.4611 57.0101 46.4881 58.051 44.7912 58.051C44.2709 58.051 43.8637 58.051 42.7097 57.4852L40.334 56.1278C39.7458 55.7885 39.3838 55.1548 39.3838 54.4761V44.0457C39.3838 43.367 39.7458 42.7333 40.334 42.394L49.3616 37.1675C49.9273 36.8507 50.6967 36.8507 51.2623 37.1675L60.2898 42.394C60.8781 42.7333 61.2402 43.367 61.2402 44.0457V54.4761C61.2402 55.1548 60.8781 55.7885 60.2898 56.1278L51.2623 61.3543C50.968 61.4902 50.6286 61.5579 50.3118 61.5579ZM53.0948 54.3857C49.1355 54.3857 48.3209 52.5756 48.3209 51.0371C48.3209 50.9012 48.434 50.7656 48.5924 50.7656H49.769C49.9046 50.7656 50.0178 50.856 50.0178 50.9919C50.1989 52.1909 50.7192 52.7792 53.1175 52.7792C55.018 52.7792 55.8328 52.3493 55.8328 51.3311C55.8328 50.7429 55.6063 50.3132 52.6424 50.0189C50.1762 49.7699 48.6376 49.227 48.6376 47.2586C48.6376 45.4259 50.1763 44.3398 52.7556 44.3398C55.6515 44.3398 57.0771 45.3354 57.2582 47.5072C57.2582 47.5754 57.2355 47.6431 57.1902 47.711C57.1448 47.7563 57.0771 47.8015 57.0092 47.8015H55.8326C55.7195 47.8015 55.6063 47.711 55.5838 47.5979C55.3123 46.3536 54.6108 45.9462 52.7556 45.9462C50.674 45.9462 50.425 46.6703 50.425 47.2132C50.425 47.8694 50.7192 48.073 53.5247 48.435C56.3077 48.7971 57.6201 49.3175 57.6201 51.2632C57.5974 53.2543 55.9685 54.3857 53.0948 54.3857Z" fill="#539E43"/>
<path d="M22.3011 20.764C22.3011 20.3568 22.0748 19.9719 21.7128 19.7683L12.1195 14.2477C11.961 14.1571 11.7801 14.1118 11.5992 14.0891H11.5086C11.3277 14.0891 11.1466 14.1571 10.9882 14.2477L1.39492 19.7683C1.03275 19.9719 0.806641 20.3566 0.806641 20.764L0.829349 35.6063C0.829349 35.8099 0.942502 36.0135 1.12339 36.1041C1.30447 36.2173 1.53058 36.2173 1.68915 36.1041L7.39083 32.846C7.7528 32.6424 7.9791 32.2577 7.9791 31.8505V24.9044C7.9791 24.4972 8.20521 24.1125 8.56738 23.9089L10.9882 22.5061C11.1693 22.3929 11.3729 22.3475 11.5765 22.3475C11.7801 22.3475 11.9837 22.3929 12.1423 22.5061L14.5631 23.9089C14.9253 24.1125 15.1514 24.497 15.1514 24.9044V31.8505C15.1514 32.2577 15.3777 32.6424 15.7396 32.846L21.4413 36.1041C21.6224 36.2173 21.8485 36.2173 22.0296 36.1041C22.2107 36.0135 22.3238 35.8099 22.3238 35.6063L22.3011 20.764ZM68.4123 0.332872C68.2315 0.242233 68.0051 0.242233 67.8466 0.332872C67.6657 0.446025 67.5525 0.626912 67.5525 0.830508V15.5374C67.5525 15.6731 67.4848 15.8087 67.3489 15.8994C67.2133 15.9671 67.0774 15.9671 66.9417 15.8994L64.5434 14.5192C64.3676 14.4191 64.1687 14.3665 63.9664 14.3665C63.7641 14.3665 63.5652 14.4191 63.3894 14.5192L53.7961 20.0625C53.4341 20.2661 53.2078 20.6508 53.2078 21.058V32.1219C53.2078 32.5291 53.4341 32.9139 53.7961 33.1175L63.3894 38.6608C63.5652 38.761 63.7641 38.8136 63.9664 38.8136C64.1687 38.8136 64.3676 38.761 64.5434 38.6608L74.1367 33.1175C74.4987 32.9139 74.725 32.5293 74.725 32.1219V4.54125C74.725 4.11134 74.4987 3.72686 74.1367 3.52307L68.4123 0.332872ZM67.53 28.4793C67.53 28.5924 67.4848 28.6829 67.3942 28.7281L64.1135 30.6286C64.0677 30.6509 64.0174 30.6625 63.9664 30.6625C63.9154 30.6625 63.8651 30.6509 63.8193 30.6286L60.5387 28.7281C60.448 28.6829 60.4028 28.5697 60.4028 28.4793V24.6781C60.4028 24.5649 60.448 24.4745 60.5387 24.4293L63.8193 22.5286C63.8651 22.5062 63.9154 22.4946 63.9664 22.4946C64.0174 22.4946 64.0677 22.5062 64.1135 22.5286L67.3942 24.4293C67.4848 24.4743 67.53 24.5876 67.53 24.6781V28.4793ZM100.337 24.5876C100.699 24.384 100.903 23.9994 100.903 23.592V20.8996C100.903 20.4924 100.677 20.1077 100.337 19.9041L90.8118 14.3836C90.636 14.2835 90.4372 14.2309 90.2349 14.2309C90.0326 14.2309 89.8338 14.2835 89.658 14.3836L80.0647 19.9267C79.7025 20.1303 79.4764 20.5149 79.4764 20.9223V31.9862C79.4764 32.3934 79.7025 32.7781 80.0647 32.9817L89.5901 38.4118C89.9522 38.6154 90.3819 38.6154 90.7214 38.4118L96.4908 35.1993C96.6719 35.1087 96.785 34.9051 96.785 34.7015C96.785 34.4979 96.6719 34.2943 96.4908 34.2037L86.8523 28.6604C86.6714 28.5474 86.5583 28.3663 86.5583 28.1627V24.701C86.5583 24.4974 86.6714 24.2938 86.8523 24.2032L89.8616 22.4836C89.9497 22.4281 90.0517 22.3987 90.1557 22.3987C90.2598 22.3987 90.3618 22.4281 90.4499 22.4836L93.459 24.2032C93.6401 24.3163 93.7532 24.4972 93.7532 24.701V27.4161C93.7532 27.6197 93.8664 27.8233 94.0473 27.9137C94.2283 28.0269 94.4545 28.0269 94.6355 27.9137L100.337 24.5876Z" fill="#333333"/>
<path d="M90.0885 24.0673C90.1221 24.0452 90.1614 24.0334 90.2015 24.0334C90.2417 24.0334 90.281 24.0452 90.3146 24.0673L92.1474 25.1307C92.2153 25.1758 92.2605 25.2437 92.2605 25.3343V27.4611C92.2605 27.5516 92.2153 27.6195 92.1474 27.6647L90.3146 28.7281C90.281 28.7502 90.2417 28.762 90.2015 28.762C90.1614 28.762 90.1221 28.7502 90.0885 28.7281L88.2557 27.6647C88.1878 27.6195 88.1426 27.5516 88.1426 27.4611V25.3343C88.1426 25.2437 88.1878 25.1758 88.2557 25.1307L90.0885 24.0673Z" fill="#539E43"/>
<path d="M38.3426 14.4286C38.1668 14.3285 37.968 14.2759 37.7657 14.2759C37.5634 14.2759 37.3646 14.3285 37.1888 14.4286L27.6634 19.9263C27.3013 20.1299 27.0977 20.5145 27.0977 20.9217V31.9406C27.0977 32.3478 27.324 32.7325 27.6634 32.9361L37.1888 38.4341C37.3646 38.5342 37.5634 38.5868 37.7657 38.5868C37.968 38.5868 38.1668 38.5342 38.3426 38.4341L47.8682 32.9361C48.2302 32.7325 48.434 32.3478 48.434 31.9406V20.9219C48.434 20.5147 48.2075 20.1301 47.8682 19.9265L38.3426 14.4286Z" fill="url(#paint0_linear_316_953)"/>
<mask id="mask0_316_953" style="mask-type:luminance" maskUnits="userSpaceOnUse" x="27" y="14" width="22" height="25">
<path d="M38.3417 14.4286C38.1658 14.3285 37.967 14.2759 37.7647 14.2759C37.5624 14.2759 37.3636 14.3285 37.1878 14.4286L27.6624 19.9263C27.3003 20.1299 27.0967 20.5145 27.0967 20.9217V31.9406C27.0967 32.3478 27.323 32.7325 27.6624 32.9361L37.1878 38.4341C37.3636 38.5342 37.5624 38.5868 37.7647 38.5868C37.967 38.5868 38.1658 38.5342 38.3417 38.4341L47.8672 32.9361C48.2292 32.7325 48.433 32.3478 48.433 31.9406V20.9219C48.433 20.5147 48.2065 20.1301 47.8672 19.9265L38.3417 14.4286Z" fill="white"/>
</mask>
<g mask="url(#mask0_316_953)">
<path d="M47.8902 19.9262L38.3196 14.4283C38.2256 14.3809 38.127 14.3429 38.0254 14.3152L27.3008 32.6874C27.3896 32.7959 27.4969 32.8878 27.6177 32.9589L37.1883 38.457C37.4598 38.6154 37.7766 38.6606 38.0706 38.57L48.1392 20.1527C48.0713 20.0623 47.9807 19.994 47.8902 19.9262Z" fill="url(#paint1_linear_316_953)"/>
</g>
<mask id="mask1_316_953" style="mask-type:luminance" maskUnits="userSpaceOnUse" x="27" y="14" width="22" height="25">
<path d="M38.3417 14.4286C38.1658 14.3285 37.967 14.2759 37.7647 14.2759C37.5624 14.2759 37.3636 14.3285 37.1878 14.4286L27.6624 19.9263C27.3003 20.1299 27.0967 20.5145 27.0967 20.9217V31.9406C27.0967 32.3478 27.323 32.7325 27.6624 32.9361L37.1878 38.4341C37.3636 38.5342 37.5624 38.5868 37.7647 38.5868C37.967 38.5868 38.1658 38.5342 38.3417 38.4341L47.8672 32.9361C48.2292 32.7325 48.433 32.3478 48.433 31.9406V20.9219C48.433 20.5147 48.2065 20.1301 47.8672 19.9265L38.3417 14.4286Z" fill="white"/>
</mask>
<g mask="url(#mask1_316_953)">
<path fill-rule="evenodd" clip-rule="evenodd" d="M47.9123 32.9364C48.1838 32.778 48.3874 32.5065 48.4781 32.2124L37.9793 14.2928C37.7078 14.2476 37.4136 14.2701 37.165 14.4285L27.6621 19.904L37.9114 38.5928C38.0605 38.5684 38.2053 38.5227 38.3413 38.4571L47.9121 32.9365L47.9123 32.9364Z" fill="url(#paint2_linear_316_953)"/>
<path fill-rule="evenodd" clip-rule="evenodd" d="M47.9116 32.9363L38.3635 38.4344C38.2287 38.5032 38.0834 38.549 37.9336 38.5701L38.1147 38.9095L48.7034 32.7782V32.6423L48.4319 32.1897C48.3867 32.5064 48.1831 32.778 47.9116 32.9363Z" fill="url(#paint3_linear_316_953)"/>
<path fill-rule="evenodd" clip-rule="evenodd" d="M47.9116 32.9363L38.3635 38.4344C38.2287 38.5032 38.0834 38.549 37.9336 38.5701L38.1147 38.9095L48.7034 32.7782V32.6423L48.4319 32.1897C48.3867 32.5064 48.1831 32.778 47.9116 32.9363Z" fill="url(#paint4_linear_316_953)"/>
</g>
</g>
<defs>
<linearGradient id="paint0_linear_316_953" x1="1481.98" y1="439.402" x2="437.905" y2="2079.95" gradientUnits="userSpaceOnUse">
<stop stop-color="#41873F"/>
<stop offset="0.3288" stop-color="#418B3D"/>
<stop offset="0.6352" stop-color="#419637"/>
<stop offset="0.9319" stop-color="#3FA92D"/>
<stop offset="1" stop-color="#3FAE2A"/>
</linearGradient>
<linearGradient id="paint1_linear_316_953" x1="929.127" y1="1354.98" x2="3543.96" y2="-65.6703" gradientUnits="userSpaceOnUse">
<stop offset="0.1376" stop-color="#41873F"/>
<stop offset="0.4032" stop-color="#54A044"/>
<stop offset="0.7136" stop-color="#66B848"/>
<stop offset="0.9081" stop-color="#6CC04A"/>
</linearGradient>
<linearGradient id="paint2_linear_316_953" x1="-63.6991" y1="1230.23" x2="2140.46" y2="1230.23" gradientUnits="userSpaceOnUse">
<stop offset="0.09192" stop-color="#6CC04A"/>
<stop offset="0.2864" stop-color="#66B848"/>
<stop offset="0.5968" stop-color="#54A044"/>
<stop offset="0.8624" stop-color="#41873F"/>
</linearGradient>
<linearGradient id="paint3_linear_316_953" x1="-1080.63" y1="370.03" x2="1123.5" y2="370.03" gradientUnits="userSpaceOnUse">
<stop offset="0.09192" stop-color="#6CC04A"/>
<stop offset="0.2864" stop-color="#66B848"/>
<stop offset="0.5968" stop-color="#54A044"/>
<stop offset="0.8624" stop-color="#41873F"/>
</linearGradient>
<linearGradient id="paint4_linear_316_953" x1="1444.62" y1="-1386.16" x2="886.222" y2="1539.8" gradientUnits="userSpaceOnUse">
<stop stop-color="#41873F"/>
<stop offset="0.3288" stop-color="#418B3D"/>
<stop offset="0.6352" stop-color="#419637"/>
<stop offset="0.9319" stop-color="#3FA92D"/>
<stop offset="1" stop-color="#3FAE2A"/>
</linearGradient>
<clipPath id="clip0_316_953">
<rect width="100.245" height="61.4704" fill="white" transform="translate(0.754883 0.264893)"/>
</clipPath>
</defs>
</svg>
