<svg width="529" height="152" viewBox="0 0 529 152" fill="none" xmlns="http://www.w3.org/2000/svg">
<path d="M11.4141 140.839C9.50206 140.839 7.74457 140.395 6.14158 139.507C4.5579 138.618 3.29289 137.382 2.34655 135.799C1.41952 134.196 0.956 132.399 0.956 130.41C0.956 128.421 1.41952 126.634 2.34655 125.051C3.29289 123.467 4.5579 122.231 6.14158 121.343C7.74457 120.454 9.50206 120.01 11.4141 120.01C13.3261 120.01 15.0739 120.454 16.6576 121.343C18.2606 122.231 19.5159 123.467 20.4236 125.051C21.3507 126.634 21.8142 128.421 21.8142 130.41C21.8142 132.399 21.3507 134.196 20.4236 135.799C19.4966 137.382 18.2413 138.618 16.6576 139.507C15.0739 140.395 13.3261 140.839 11.4141 140.839ZM11.4141 136.32C13.0364 136.32 14.3303 135.779 15.296 134.698C16.281 133.616 16.7735 132.187 16.7735 130.41C16.7735 128.614 16.281 127.185 15.296 126.123C14.3303 125.041 13.0364 124.5 11.4141 124.5C9.77245 124.5 8.45915 125.031 7.47418 126.094C6.50853 127.156 6.0257 128.595 6.0257 130.41C6.0257 132.206 6.50853 133.645 7.47418 134.727C8.45915 135.789 9.77245 136.32 11.4141 136.32ZM45.1966 124.298C47.2051 124.298 48.7985 124.906 49.9766 126.123C51.174 127.339 51.7727 129.029 51.7727 131.192V140.636H46.8479V131.859C46.8479 130.816 46.5678 130.014 46.0077 129.454C45.467 128.875 44.7137 128.585 43.7481 128.585C42.7824 128.585 42.0196 128.875 41.4595 129.454C40.9187 130.014 40.6483 130.816 40.6483 131.859V140.636H35.7235V131.859C35.7235 130.816 35.4434 130.014 34.8834 129.454C34.3426 128.875 33.5894 128.585 32.6237 128.585C31.6581 128.585 30.8952 128.875 30.3351 129.454C29.7944 130.014 29.524 130.816 29.524 131.859V140.636H24.5702V124.471H29.524V126.499C30.0261 125.823 30.6828 125.292 31.4939 124.906C32.3051 124.5 33.2224 124.298 34.246 124.298C35.4628 124.298 36.5443 124.558 37.4906 125.08C38.4563 125.601 39.2095 126.345 39.7503 127.31C40.3104 126.422 41.0732 125.698 42.0389 125.138C43.0045 124.578 44.0571 124.298 45.1966 124.298ZM65.087 124.298C66.9797 124.298 68.4861 124.916 69.6063 126.152C70.7457 127.368 71.3155 129.049 71.3155 131.192V140.636H66.3906V131.859C66.3906 130.777 66.1106 129.937 65.5505 129.338C64.9904 128.74 64.2372 128.44 63.2909 128.44C62.3445 128.44 61.5913 128.74 61.0312 129.338C60.4712 129.937 60.1911 130.777 60.1911 131.859V140.636H55.2373V124.471H60.1911V126.615C60.6933 125.901 61.3692 125.34 62.219 124.935C63.0688 124.51 64.0248 124.298 65.087 124.298ZM77.2493 122.791C76.3802 122.791 75.6656 122.54 75.1055 122.038C74.5648 121.516 74.2944 120.879 74.2944 120.126C74.2944 119.353 74.5648 118.716 75.1055 118.214C75.6656 117.692 76.3802 117.432 77.2493 117.432C78.0991 117.432 78.7943 117.692 79.3351 118.214C79.8952 118.716 80.1752 119.353 80.1752 120.126C80.1752 120.879 79.8952 121.516 79.3351 122.038C78.7943 122.54 78.0991 122.791 77.2493 122.791ZM79.7117 124.471V140.636H74.7579V124.471H79.7117ZM88.6007 130.439C88.6007 128.431 89.0352 126.644 89.9043 125.08C90.7734 123.496 91.9805 122.27 93.5255 121.401C95.0899 120.512 96.857 120.068 98.827 120.068C101.241 120.068 103.308 120.705 105.026 121.98C106.745 123.255 107.894 124.993 108.474 127.195H103.028C102.622 126.345 102.043 125.698 101.289 125.254C100.555 124.809 99.7154 124.587 98.769 124.587C97.2433 124.587 96.0072 125.118 95.0609 126.181C94.1146 127.243 93.6414 128.662 93.6414 130.439C93.6414 132.216 94.1146 133.635 95.0609 134.698C96.0072 135.76 97.2433 136.291 98.769 136.291C99.7154 136.291 100.555 136.069 101.289 135.625C102.043 135.181 102.622 134.534 103.028 133.684H108.474C107.894 135.885 106.745 137.624 105.026 138.898C103.308 140.154 101.241 140.781 98.827 140.781C96.857 140.781 95.0899 140.347 93.5255 139.478C91.9805 138.589 90.7734 137.363 89.9043 135.799C89.0352 134.234 88.6007 132.448 88.6007 130.439ZM118.866 140.868C117.282 140.868 115.853 140.53 114.578 139.854C113.323 139.178 112.328 138.213 111.594 136.957C110.88 135.702 110.523 134.234 110.523 132.554C110.523 130.893 110.89 129.435 111.623 128.18C112.357 126.905 113.362 125.93 114.636 125.254C115.911 124.578 117.34 124.24 118.924 124.24C120.507 124.24 121.937 124.578 123.211 125.254C124.486 125.93 125.49 126.905 126.224 128.18C126.958 129.435 127.325 130.893 127.325 132.554C127.325 134.215 126.948 135.683 126.195 136.957C125.461 138.213 124.447 139.178 123.153 139.854C121.879 140.53 120.45 140.868 118.866 140.868ZM118.866 136.581C119.812 136.581 120.614 136.233 121.27 135.538C121.946 134.843 122.284 133.848 122.284 132.554C122.284 131.26 121.956 130.265 121.299 129.57C120.662 128.875 119.87 128.527 118.924 128.527C117.958 128.527 117.157 128.875 116.519 129.57C115.882 130.246 115.563 131.241 115.563 132.554C115.563 133.848 115.872 134.843 116.49 135.538C117.128 136.233 117.919 136.581 118.866 136.581ZM139.803 124.298C141.695 124.298 143.202 124.916 144.322 126.152C145.462 127.368 146.031 129.049 146.031 131.192V140.636H141.106V131.859C141.106 130.777 140.826 129.937 140.266 129.338C139.706 128.74 138.953 128.44 138.007 128.44C137.06 128.44 136.307 128.74 135.747 129.338C135.187 129.937 134.907 130.777 134.907 131.859V140.636H129.953V124.471H134.907V126.615C135.409 125.901 136.085 125.34 136.935 124.935C137.785 124.51 138.741 124.298 139.803 124.298ZM159.323 124.298C161.216 124.298 162.722 124.916 163.843 126.152C164.982 127.368 165.552 129.049 165.552 131.192V140.636H160.627V131.859C160.627 130.777 160.347 129.937 159.787 129.338C159.227 128.74 158.474 128.44 157.527 128.44C156.581 128.44 155.828 128.74 155.268 129.338C154.708 129.937 154.428 130.777 154.428 131.859V140.636H149.474V124.471H154.428V126.615C154.93 125.901 155.606 125.34 156.455 124.935C157.305 124.51 158.261 124.298 159.323 124.298ZM184.232 132.293C184.232 132.757 184.203 133.24 184.145 133.742H172.934C173.011 134.746 173.33 135.518 173.89 136.059C174.47 136.581 175.174 136.841 176.005 136.841C177.241 136.841 178.1 136.32 178.583 135.277H183.856C183.585 136.339 183.093 137.295 182.378 138.145C181.683 138.995 180.804 139.661 179.742 140.144C178.68 140.627 177.492 140.868 176.179 140.868C174.595 140.868 173.185 140.53 171.949 139.854C170.713 139.178 169.747 138.213 169.052 136.957C168.357 135.702 168.009 134.234 168.009 132.554C168.009 130.874 168.347 129.406 169.023 128.151C169.719 126.895 170.684 125.93 171.92 125.254C173.156 124.578 174.576 124.24 176.179 124.24C177.743 124.24 179.134 124.568 180.35 125.225C181.567 125.881 182.513 126.818 183.189 128.035C183.885 129.251 184.232 130.671 184.232 132.293ZM179.163 130.99C179.163 130.14 178.873 129.464 178.294 128.962C177.714 128.46 176.99 128.208 176.121 128.208C175.29 128.208 174.585 128.45 174.006 128.933C173.446 129.416 173.098 130.101 172.963 130.99H179.163ZM185.861 132.554C185.861 130.874 186.199 129.406 186.875 128.151C187.57 126.895 188.526 125.93 189.743 125.254C190.979 124.578 192.389 124.24 193.972 124.24C196 124.24 197.69 124.771 199.042 125.833C200.413 126.895 201.311 128.392 201.736 130.323H196.464C196.019 129.087 195.16 128.469 193.885 128.469C192.978 128.469 192.253 128.826 191.713 129.541C191.172 130.236 190.901 131.241 190.901 132.554C190.901 133.867 191.172 134.881 191.713 135.596C192.253 136.291 192.978 136.639 193.885 136.639C195.16 136.639 196.019 136.021 196.464 134.785H201.736C201.311 136.677 200.413 138.164 199.042 139.246C197.671 140.327 195.981 140.868 193.972 140.868C192.389 140.868 190.979 140.53 189.743 139.854C188.526 139.178 187.57 138.213 186.875 136.957C186.199 135.702 185.861 134.234 185.861 132.554ZM213.396 136.436V140.636H210.875C209.079 140.636 207.679 140.202 206.675 139.333C205.67 138.444 205.168 137.006 205.168 135.016V128.585H203.198V124.471H205.168V120.532H210.122V124.471H213.367V128.585H210.122V135.074C210.122 135.557 210.238 135.905 210.47 136.117C210.701 136.33 211.088 136.436 211.628 136.436H213.396ZM222.731 140.868C221.321 140.868 220.066 140.627 218.965 140.144C217.864 139.661 216.995 139.005 216.358 138.174C215.72 137.324 215.363 136.378 215.286 135.335H220.182C220.24 135.895 220.5 136.349 220.964 136.697C221.427 137.044 221.997 137.218 222.673 137.218C223.291 137.218 223.764 137.102 224.093 136.87C224.44 136.619 224.614 136.301 224.614 135.914C224.614 135.451 224.373 135.113 223.89 134.9C223.407 134.669 222.625 134.418 221.543 134.147C220.384 133.877 219.419 133.597 218.646 133.307C217.874 132.998 217.207 132.525 216.647 131.888C216.087 131.231 215.807 130.352 215.807 129.251C215.807 128.324 216.058 127.484 216.56 126.731C217.082 125.958 217.835 125.35 218.82 124.906C219.824 124.462 221.012 124.24 222.383 124.24C224.411 124.24 226.005 124.742 227.163 125.746C228.342 126.75 229.017 128.083 229.191 129.744H224.614C224.537 129.184 224.286 128.74 223.861 128.411C223.455 128.083 222.915 127.919 222.239 127.919C221.659 127.919 221.215 128.035 220.906 128.266C220.597 128.479 220.442 128.778 220.442 129.164C220.442 129.628 220.684 129.976 221.167 130.207C221.669 130.439 222.441 130.671 223.484 130.903C224.682 131.212 225.657 131.521 226.41 131.83C227.163 132.119 227.82 132.602 228.38 133.278C228.96 133.935 229.259 134.823 229.278 135.943C229.278 136.89 229.008 137.74 228.467 138.493C227.946 139.227 227.183 139.806 226.178 140.231C225.193 140.656 224.044 140.868 222.731 140.868Z" fill="#EF6A1F"/>
<rect width="79.6667" height="79.6667" rx="14.4848" fill="#EF6A1F"/>
<path d="M22.8589 35.3069L39.8333 26.2539L56.8077 35.3069L39.8333 44.36L22.8589 35.3069Z" stroke="white" stroke-width="2.71591" stroke-linecap="round" stroke-linejoin="round"/>
<path d="M48.3205 55.6762V39.8334L39.8333 35.3069" stroke="white" stroke-width="2.71591" stroke-linecap="round" stroke-linejoin="round"/>
<path d="M52.847 37.4146V45.1379C52.846 45.3783 52.7666 45.6117 52.6207 45.8027C51.673 47.0758 47.6557 51.7155 39.8333 51.7155C32.0109 51.7155 27.9936 47.0758 27.0459 45.8027C26.9001 45.6117 26.8206 45.3783 26.8196 45.1379V37.4146" stroke="white" stroke-width="2.71591" stroke-linecap="round" stroke-linejoin="round"/>
</svg>
