<svg width="58" height="58" viewBox="0 0 58 58" fill="none" xmlns="http://www.w3.org/2000/svg">
<g clip-path="url(#clip0_316_1030)">
<path d="M28.7521 0.0163574C14.0649 0.0163574 14.982 6.41114 14.982 6.41114L14.9983 13.0363H29.0139V15.0254H9.43149C9.43149 15.0254 0.0332031 13.9552 0.0332031 28.8339C0.0332031 43.7131 8.23626 43.1854 8.23626 43.1854H13.1318V36.2809C13.1318 36.2809 12.8679 28.0449 21.2039 28.0449H35.1049C35.1049 28.0449 42.915 28.1716 42.915 20.4665V7.72649C42.915 7.72649 44.1011 0.0163574 28.7521 0.0163574ZM21.0238 4.47167C21.355 4.47137 21.683 4.53664 21.9891 4.66376C22.2951 4.79087 22.5732 4.97733 22.8074 5.21247C23.0416 5.4476 23.2273 5.72679 23.3539 6.03407C23.4805 6.34134 23.5455 6.67067 23.5452 7.0032C23.5455 7.33573 23.4805 7.66505 23.3539 7.97233C23.2273 8.2796 23.0416 8.55879 22.8074 8.79393C22.5732 9.02906 22.2951 9.21552 21.9891 9.34264C21.683 9.46975 21.355 9.53503 21.0238 9.53473C20.6926 9.53503 20.3646 9.46975 20.0586 9.34264C19.7525 9.21552 19.4745 9.02906 19.2403 8.79393C19.0061 8.55879 18.8204 8.2796 18.6937 7.97233C18.5671 7.66505 18.5021 7.33573 18.5024 7.0032C18.5021 6.67067 18.5671 6.34134 18.6937 6.03407C18.8204 5.72679 19.0061 5.4476 19.2403 5.21247C19.4745 4.97733 19.7525 4.79087 20.0586 4.66376C20.3646 4.53664 20.6926 4.47137 21.0238 4.47167Z" fill="url(#paint0_linear_316_1030)"/>
<path d="M29.1687 57.8013C43.8559 57.8013 42.9388 51.4065 42.9388 51.4065L42.9225 44.7815H28.9066V42.7925H48.4891C48.4891 42.7925 57.8874 43.8626 57.8874 28.9834C57.8874 14.1045 49.6843 14.6322 49.6843 14.6322H44.7888V21.5365C44.7888 21.5365 45.0527 29.7725 36.7166 29.7725H22.8156C22.8156 29.7725 15.0056 29.6458 15.0056 37.3511V50.0914C15.0056 50.0914 13.8197 57.8013 29.1685 57.8013H29.1687ZM36.897 53.3464C36.5658 53.3467 36.2378 53.2814 35.9317 53.1543C35.6257 53.0272 35.3476 52.8407 35.1134 52.6056C34.8792 52.3705 34.6935 52.0913 34.5669 51.784C34.4403 51.4767 34.3753 51.1474 34.3756 50.8149C34.3752 50.4823 34.4402 50.153 34.5668 49.8457C34.6934 49.5384 34.8791 49.2592 35.1133 49.024C35.3475 48.7888 35.6256 48.6024 35.9317 48.4752C36.2377 48.3481 36.5658 48.2828 36.897 48.2831C37.2282 48.2828 37.5562 48.3481 37.8622 48.4752C38.1683 48.6023 38.4463 48.7888 38.6805 49.0239C38.9147 49.259 39.1004 49.5382 39.2271 49.8455C39.3537 50.1528 39.4187 50.4821 39.4184 50.8146C39.4187 51.1472 39.3537 51.4765 39.2271 51.7838C39.1004 52.091 38.9147 52.3702 38.6805 52.6054C38.4463 52.8405 38.1683 53.027 37.8622 53.1541C37.5562 53.2812 37.2282 53.3467 36.897 53.3464Z" fill="url(#paint1_linear_316_1030)"/>
</g>
<defs>
<linearGradient id="paint0_linear_316_1030" x1="556.013" y1="519.756" x2="3434.48" y2="3358.11" gradientUnits="userSpaceOnUse">
<stop stop-color="#387EB8"/>
<stop offset="1" stop-color="#366994"/>
</linearGradient>
<linearGradient id="paint1_linear_316_1030" x1="835.633" y1="903.054" x2="3926.21" y2="3812.99" gradientUnits="userSpaceOnUse">
<stop stop-color="#FFE052"/>
<stop offset="1" stop-color="#FFC331"/>
</linearGradient>
<clipPath id="clip0_316_1030">
<rect width="58" height="58" fill="white"/>
</clipPath>
</defs>
</svg>
