<svg width="73" height="72" viewBox="0 0 73 72" fill="none" xmlns="http://www.w3.org/2000/svg">
<path d="M33.7719 31.3138C32.8415 31.8436 32.0912 32.6337 31.616 33.5841C31.1408 34.5345 30.962 35.6026 31.1023 36.6532C31.2425 37.7038 31.6955 38.6898 32.4039 39.4865C33.1123 40.2832 34.0444 40.8548 35.0822 41.129C36.12 41.4033 37.2169 41.3678 38.2343 41.0272C39.2516 40.6865 40.1438 40.056 40.7978 39.2152C41.4518 38.3745 41.8384 37.3614 41.9086 36.304C41.9788 35.2465 41.7295 34.1923 41.1923 33.2746C40.4718 32.0442 39.2854 31.1463 37.8938 30.7786C36.5023 30.4109 35.0196 30.6034 33.7719 31.3138ZM58.1195 37.1268C57.7629 36.7248 57.3866 36.3218 56.9906 35.9176C57.2672 35.6309 57.5349 35.3444 57.7936 35.0581C62.678 29.6453 64.7394 24.217 62.8293 20.9535C60.9977 17.8245 55.5493 16.892 48.7284 18.2001C48.0565 18.3298 47.3884 18.476 46.7239 18.6389C46.5967 18.2064 46.4614 17.7764 46.3181 17.3489C44.0041 10.4713 40.2662 5.99763 36.4457 6C32.7823 6.00165 29.2416 10.1913 26.9829 16.6725C26.7607 17.3119 26.5551 17.9566 26.3662 18.6066C25.9219 18.4991 25.4758 18.3998 25.0279 18.3087C17.8313 16.8514 12.0349 17.8112 10.1284 21.0765C8.30041 24.2078 10.2122 29.326 14.7777 34.4929C15.2304 35.0041 15.696 35.5039 16.1745 35.9921C15.6105 36.5651 15.0764 37.1378 14.5786 37.7073C10.1238 42.8013 8.32136 47.8358 10.1465 50.9535C12.0313 54.1739 17.7462 55.2266 24.702 53.8766C25.2658 53.7664 25.8264 53.6424 26.3838 53.5046C26.5881 54.2077 26.8121 54.9047 27.0559 55.5956C29.3047 61.9468 32.8255 66.0015 36.4759 66.0002C40.2459 65.998 44.0252 61.6415 46.3149 55.0239C46.4958 54.501 46.6669 53.9579 46.8292 53.3987C47.5493 53.5754 48.2741 53.7322 49.0035 53.8691C55.7054 55.1197 61.0257 54.1361 62.8475 51.0161C64.7287 47.7933 62.7891 42.388 58.1195 37.1268ZM12.3805 22.3555C13.5541 20.3455 18.2912 19.5614 24.5048 20.8195C24.9019 20.9001 25.3058 20.9901 25.7165 21.0895C25.1099 23.7363 24.6818 26.4199 24.4352 29.1225C22.1932 30.6782 20.0556 32.3753 18.0359 34.2033C17.5909 33.7494 17.1578 33.2845 16.7365 32.8086C12.8247 28.3815 11.2788 24.2424 12.3805 22.3555ZM24.2024 39.5398C22.6494 38.38 21.2062 37.1918 19.8963 35.9968C21.2053 34.8092 22.6494 33.625 24.1992 32.4683C24.1435 33.6466 24.1159 34.8258 24.1164 36.0059C24.1173 37.1843 24.1459 38.3623 24.2024 39.5398ZM24.2005 51.3616C21.5642 51.9398 18.8425 52.0345 16.1714 51.641C15.4392 51.5848 14.7264 51.3811 14.0772 51.0424C13.4279 50.7038 12.856 50.2374 12.3967 49.6721C11.2893 47.7801 12.7366 43.7381 16.5465 39.3814C17.0255 38.8354 17.5202 38.3037 18.0306 37.7862C20.0506 39.6238 22.1917 41.3276 24.4397 42.8864C24.6897 45.6236 25.1228 48.3415 25.7361 51.0224C25.2272 51.1479 24.7153 51.261 24.2005 51.3616ZM45.7998 27.2435C44.7796 26.6095 43.7469 25.9959 42.7015 25.4026C41.6728 24.8186 40.6318 24.2565 39.5783 23.7164C41.382 22.9684 43.1551 22.3295 44.8667 21.809C45.2702 23.6038 45.5816 25.4177 45.7998 27.2435ZM29.4406 17.5056C31.3758 11.9522 34.2392 8.56404 36.4471 8.56311C38.7986 8.562 41.8538 12.2179 43.8515 18.156C43.9813 18.5431 44.104 18.9324 44.2196 19.3238C41.595 20.1267 39.0271 21.1001 36.5328 22.2374C34.0489 21.0867 31.4891 20.1025 28.8709 19.2916C29.0459 18.6918 29.2358 18.0965 29.4406 17.5056ZM28.2228 21.777C30.0082 22.3314 31.7641 22.9742 33.4839 23.703C31.353 24.7876 29.2772 25.969 27.2565 27.2472C27.5006 25.3332 27.8255 23.4994 28.2228 21.777ZM27.2609 44.759C28.2686 45.3953 29.2911 46.008 30.3282 46.5972C31.3862 47.198 32.4583 47.7736 33.5444 48.3239C31.8115 49.0779 30.0405 49.7437 28.2384 50.3187C27.8364 48.5724 27.508 46.7064 27.2609 44.759ZM43.8553 54.1956C43.0461 56.737 41.7696 59.1097 40.0895 61.1953C39.6743 61.7927 39.1391 62.3 38.5174 62.6855C37.8956 63.0709 37.2004 63.3265 36.4745 63.4365C34.2596 63.4378 31.4325 60.1815 29.5094 54.7501C29.2829 54.108 29.0745 53.46 28.8843 52.8062C31.515 51.9691 34.0852 50.957 36.5772 49.7771C39.092 50.9218 41.6803 51.9024 44.3254 52.7126C44.181 53.2105 44.0243 53.7048 43.8553 54.1956ZM44.9571 50.2229C43.2258 49.6949 41.427 49.0454 39.5973 48.2864C40.6288 47.751 41.6677 47.1856 42.7141 46.5901C43.7879 45.9785 44.8344 45.3516 45.8534 44.7094C45.6505 46.5612 45.3513 48.4014 44.9571 50.2229ZM46.3146 35.9949C46.3168 37.8168 46.2592 39.6372 46.1416 41.4562C44.643 42.4565 43.0609 43.4332 41.4148 44.3705C39.7756 45.304 38.1513 46.1618 36.5581 46.9382C34.8815 46.1457 33.2372 45.2917 31.6252 44.3762C30.0223 43.4662 28.4562 42.4972 26.9268 41.4692C26.787 39.6508 26.7166 37.829 26.7156 36.004C26.7143 34.1803 26.7835 32.359 26.9226 30.5391C28.4207 29.53 29.9913 28.554 31.6152 27.6293C33.2465 26.7003 34.8911 25.8461 36.5265 25.0719C38.1825 25.8657 39.8086 26.7163 41.4048 27.6238C43.0066 28.5319 44.5771 29.4905 46.1164 30.4999C46.2486 32.3287 46.3145 34.1604 46.3146 35.9949ZM49.2246 20.7164C55.0687 19.5952 59.4751 20.3494 60.5789 22.235C61.7548 24.2439 60.0695 28.6805 55.8527 33.3541C55.6197 33.6119 55.3778 33.871 55.1273 34.131C53.0726 32.2992 50.8939 30.6074 48.6061 29.0674C48.3753 26.3943 47.9632 23.7395 47.3729 21.1207C48.0021 20.968 48.6194 20.8332 49.2246 20.7164ZM48.8296 32.3705C50.3727 33.4817 51.8564 34.6712 53.2746 35.934C51.8626 37.2176 50.3837 38.4276 48.8437 39.5589C48.8909 38.3711 48.9141 37.1827 48.9133 35.9937C48.9128 34.7857 48.8849 33.5779 48.8296 32.3705ZM60.5951 49.7368C59.4895 51.6302 55.2178 52.4198 49.4862 51.3503C48.8294 51.228 48.1554 51.0824 47.4643 50.9136C48.0405 48.2611 48.4342 45.5732 48.6428 42.8683C50.9267 41.3015 53.0986 39.5815 55.1431 37.7207C55.5009 38.0872 55.8412 38.4521 56.164 38.8153C57.9922 40.7759 59.4389 43.0515 60.4317 45.5288C60.7492 46.1819 60.9275 46.8923 60.9556 47.6161C60.9837 48.3399 60.861 49.0616 60.5951 49.7368Z" fill="#14A2F1"/>
</svg>
