<svg width="56" height="56" viewBox="0 0 56 56" fill="none" xmlns="http://www.w3.org/2000/svg">
<rect width="56" height="56" rx="8" fill="#E6F6FF"/>
<path d="M39.5496 36.4001C39.0819 36.4022 38.6207 36.5099 38.2004 36.7151L33.6854 32.2001H30.0996V34.3001H32.8149L36.7157 38.2008C36.5103 38.6211 36.4023 39.0823 36.3996 39.5501C36.3996 40.1731 36.5844 40.7821 36.9305 41.3001C37.2766 41.8181 37.7686 42.2219 38.3442 42.4603C38.9197 42.6987 39.5531 42.7611 40.1641 42.6395C40.7752 42.518 41.3365 42.218 41.777 41.7774C42.2175 41.3369 42.5175 40.7756 42.6391 40.1646C42.7606 39.5535 42.6982 38.9202 42.4598 38.3446C42.2214 37.769 41.8177 37.277 41.2997 36.9309C40.7816 36.5848 40.1726 36.4001 39.5496 36.4001ZM39.5496 40.6001C39.3419 40.6001 39.1389 40.5385 38.9663 40.4231C38.7936 40.3077 38.659 40.1437 38.5795 39.9519C38.5001 39.76 38.4793 39.5489 38.5198 39.3452C38.5603 39.1415 38.6603 38.9544 38.8071 38.8076C38.954 38.6607 39.1411 38.5607 39.3448 38.5202C39.5484 38.4797 39.7596 38.5005 39.9514 38.58C40.1433 38.6595 40.3073 38.794 40.4227 38.9667C40.538 39.1394 40.5996 39.3424 40.5996 39.5501C40.5996 39.8285 40.489 40.0956 40.2921 40.2925C40.0952 40.4894 39.8281 40.6001 39.5496 40.6001ZM39.5496 24.8501C38.9003 24.852 38.2674 25.0549 37.738 25.4309C37.2086 25.8069 36.8085 26.3376 36.5928 26.9501H30.0996V29.0501H36.5928C36.7862 29.5931 37.1252 30.0725 37.5727 30.4359C38.0202 30.7993 38.5589 31.0327 39.1301 31.1107C39.7013 31.1886 40.2829 31.108 40.8113 30.8778C41.3398 30.6475 41.7948 30.2765 42.1267 29.8051C42.4585 29.3337 42.6544 28.7802 42.6929 28.2051C42.7315 27.6299 42.6112 27.0552 42.3452 26.5438C42.0792 26.0323 41.6778 25.6039 41.1847 25.3052C40.6917 25.0065 40.1261 24.849 39.5496 24.8501ZM39.5496 29.0501C39.3419 29.0501 39.1389 28.9885 38.9663 28.8731C38.7936 28.7577 38.659 28.5937 38.5795 28.4019C38.5001 28.21 38.4793 27.9989 38.5198 27.7952C38.5603 27.5915 38.6603 27.4044 38.8071 27.2576C38.954 27.1107 39.1411 27.0107 39.3448 26.9702C39.5484 26.9297 39.7596 26.9505 39.9514 27.03C40.1433 27.1094 40.3073 27.244 40.4227 27.4167C40.538 27.5894 40.5996 27.7924 40.5996 28.0001C40.5996 28.2785 40.489 28.5456 40.2921 28.7425C40.0952 28.9394 39.8281 29.0501 39.5496 29.0501ZM39.5496 13.3001C38.7144 13.3009 37.9137 13.633 37.3231 14.2236C36.7326 14.8141 36.4004 15.6149 36.3996 16.4501C36.4032 16.9531 36.5286 17.4477 36.765 17.8917L32.8254 21.7001H30.0996V23.8001H33.6738L38.2938 19.3355C38.723 19.5226 39.1885 19.6117 39.6564 19.5962C40.1244 19.5808 40.583 19.4612 40.9988 19.2461C41.4147 19.0311 41.7774 18.726 42.0605 18.3531C42.3436 17.9802 42.54 17.5488 42.6354 17.0905C42.7308 16.6321 42.7227 16.1582 42.6119 15.7033C42.501 15.2485 42.2901 14.824 41.9945 14.4609C41.6989 14.0978 41.3261 13.8052 40.9031 13.6044C40.4802 13.4036 40.0178 13.2996 39.5496 13.3001ZM39.5496 17.5001C39.3419 17.5001 39.1389 17.4385 38.9663 17.3231C38.7936 17.2077 38.659 17.0437 38.5795 16.8519C38.5001 16.66 38.4793 16.4489 38.5198 16.2452C38.5603 16.0415 38.6603 15.8544 38.8071 15.7076C38.954 15.5607 39.1411 15.4607 39.3448 15.4202C39.5484 15.3797 39.7596 15.4005 39.9514 15.48C40.1433 15.5594 40.3073 15.694 40.4227 15.8667C40.538 16.0394 40.5996 16.2424 40.5996 16.4501C40.5996 16.7285 40.489 16.9956 40.2921 17.1925C40.0952 17.3894 39.8281 17.5001 39.5496 17.5001Z" fill="#14A2F1"/>
<path d="M30.0998 17.4999H32.1998V15.3999H30.0998C29.5014 15.4019 28.9105 15.5325 28.367 15.7829C27.8235 16.0332 27.3402 16.3975 26.9498 16.851C26.5594 16.3975 26.0761 16.0332 25.5326 15.7829C24.9891 15.5325 24.3982 15.4019 23.7998 15.3999H22.7498C20.2444 15.4027 17.8423 16.3992 16.0707 18.1708C14.2991 19.9424 13.3026 22.3445 13.2998 24.8499V31.1499C13.3026 33.6553 14.2991 36.0574 16.0707 37.829C17.8423 39.6006 20.2444 40.5971 22.7498 40.5999H23.7998C24.3982 40.5979 24.9891 40.4673 25.5326 40.2169C26.0761 39.9666 26.5594 39.6023 26.9498 39.1488C27.3402 39.6023 27.8235 39.9666 28.367 40.2169C28.9105 40.4673 29.5014 40.5979 30.0998 40.5999H32.1998V38.4999H30.0998C29.543 38.4993 29.0092 38.2779 28.6155 37.8842C28.2218 37.4905 28.0004 36.9567 27.9998 36.3999V19.5999C28.0004 19.0431 28.2218 18.5093 28.6155 18.1156C29.0092 17.7219 29.543 17.5005 30.0998 17.4999ZM23.7998 38.4999H22.7498C20.9842 38.4967 19.2786 37.8586 17.9446 36.7019C16.6105 35.5452 15.7371 33.9473 15.4838 32.1999H17.4998V30.0999H15.3998V25.8999H18.5498C19.385 25.8991 20.1857 25.5669 20.7763 24.9764C21.3668 24.3858 21.699 23.5851 21.6998 22.7499V20.6499H19.5998V22.7499C19.5998 23.0284 19.4892 23.2955 19.2923 23.4924C19.0954 23.6893 18.8283 23.7999 18.5498 23.7999H15.4838C15.7371 22.0525 16.6105 20.4546 17.9446 19.2979C19.2786 18.1413 20.9842 17.5031 22.7498 17.4999H23.7998C24.3566 17.5005 24.8904 17.7219 25.2841 18.1156C25.6778 18.5093 25.8993 19.0431 25.8998 19.5999V23.7999H23.7998V25.8999H25.8998V30.0999H23.7998C22.9646 30.1007 22.1639 30.4329 21.5733 31.0234C20.9828 31.614 20.6506 32.4147 20.6498 33.2499V35.3499H22.7498V33.2499C22.7498 32.9714 22.8604 32.7044 23.0573 32.5074C23.2543 32.3105 23.5213 32.1999 23.7998 32.1999H25.8998V36.3999C25.8993 36.9567 25.6778 37.4905 25.2841 37.8842C24.8904 38.2779 24.3566 38.4993 23.7998 38.4999Z" fill="#14A2F1"/>
</svg>
