<svg width="87" height="87" viewBox="0 0 87 87" fill="none" xmlns="http://www.w3.org/2000/svg">
<path d="M55.6957 67.313C55.3318 67.0916 55.0148 66.7947 54.7628 66.435C54.6464 66.2691 54.5481 66.0937 54.4666 65.9125H13.1181V25.1571H69.2428V51.7689C70.4409 51.8771 71.4463 52.6641 71.8684 53.7417C72.2421 53.5368 72.6587 53.4102 73.0965 53.3716C73.3926 53.3458 73.6868 53.3642 73.972 53.4206V15.0041C73.972 12.8308 72.2043 11.0627 70.0312 11.0627H12.3298C10.1567 11.0627 8.38867 12.8308 8.38867 15.0041V66.7009C8.38867 68.8742 10.1567 70.6421 12.3298 70.6421H55.3365C55.0009 69.9625 54.9213 69.1952 55.1188 68.4571C55.2327 68.0325 55.4297 67.6452 55.6957 67.313ZM64.9148 17.681C64.9148 16.8773 65.5663 16.2256 66.37 16.2256H67.8252C68.629 16.2256 69.2804 16.8771 69.2804 17.681V19.3303C69.2804 20.134 68.6289 20.7855 67.8252 20.7855H66.37C65.5662 20.7855 64.9148 20.134 64.9148 19.3303V17.681ZM58.1481 17.681C58.1481 16.8773 58.7996 16.2256 59.6033 16.2256H61.0586C61.8625 16.2256 62.5138 16.8771 62.5138 17.681V19.3303C62.5138 20.134 61.8623 20.7855 61.0586 20.7855H59.6033C58.7996 20.7855 58.1481 20.134 58.1481 19.3303V17.681ZM51.3811 17.681C51.3811 16.8773 52.0328 16.2256 52.8363 16.2256H54.2915C55.0954 16.2256 55.7469 16.8771 55.7469 17.681V19.3303C55.7469 20.134 55.0954 20.7855 54.2915 20.7855H52.8363C52.0328 20.7855 51.3811 20.134 51.3811 19.3303V17.681Z" fill="#D2D4DA"/>
<path d="M78.602 64.5375L78.1648 62.0576C78.1057 61.7236 77.7875 61.5006 77.4532 61.5594L75.2479 61.9481C74.9831 61.3268 74.645 60.7449 74.2437 60.2123L75.6841 58.4952C75.7888 58.3708 75.8398 58.2094 75.8258 58.047C75.8114 57.8847 75.7331 57.7348 75.6084 57.63L73.6796 56.0112C73.5549 55.9066 73.3932 55.8557 73.231 55.8699C73.0686 55.8842 72.9187 55.9622 72.8141 56.087L71.3749 57.8027C70.7841 57.5017 70.1522 57.2696 69.4901 57.1164V54.877C69.4901 54.5378 69.2151 54.2626 68.8759 54.2626H66.3575C66.0186 54.2626 65.7433 54.5378 65.7433 54.877V57.1164C65.0809 57.2694 64.4497 57.5017 63.8585 57.8027L62.419 56.0872C62.201 55.8273 61.8137 55.7935 61.5537 56.0114L59.6247 57.63C59.5 57.7348 59.4219 57.8847 59.4075 58.047C59.3934 58.2094 59.4443 58.371 59.549 58.4957L60.9896 60.2124C60.5889 60.7449 60.2501 61.3272 59.9854 61.9482L57.7801 61.5594C57.4466 61.5007 57.1277 61.7236 57.0685 62.0576L56.6314 64.5375C56.6031 64.6979 56.6398 64.8628 56.7329 64.9964C56.8267 65.13 56.9687 65.2208 57.1292 65.2491L59.3362 65.638C59.3722 66.3218 59.4913 66.9834 59.6829 67.6133L57.7431 68.7329C57.602 68.814 57.4991 68.9484 57.4568 69.1056C57.4147 69.263 57.4369 69.4305 57.5182 69.5717L58.7772 71.7524C58.8583 71.8936 58.9928 71.9964 59.15 72.0386C59.2023 72.0526 59.2556 72.0595 59.309 72.0595C59.4158 72.0595 59.5217 72.0317 59.616 71.9772L61.5573 70.8563C62.0139 71.3454 62.5292 71.7789 63.0925 72.1454L62.3259 74.2513C62.2704 74.4045 62.2776 74.5734 62.3465 74.721C62.4154 74.8687 62.5399 74.9829 62.693 75.0384L65.0588 75.8994C65.1267 75.9242 65.198 75.9369 65.2691 75.9369C65.3577 75.9369 65.4468 75.9177 65.5289 75.8792C65.6766 75.8105 65.7905 75.6857 65.8461 75.5326L66.6125 73.4267C66.9411 73.4665 67.2756 73.4871 67.6149 73.4871C67.9542 73.4871 68.2886 73.4662 68.6172 73.4267L69.3838 75.5326C69.4393 75.6857 69.5537 75.8105 69.701 75.8792C69.7829 75.9175 69.8717 75.9369 69.9609 75.9369C70.0318 75.9369 70.103 75.9245 70.1709 75.8994L72.5371 75.0384C72.6898 74.9829 72.8146 74.8683 72.8833 74.721C72.9522 74.5734 72.9595 74.4045 72.9039 74.2513L72.1373 72.1458C72.7 71.7792 73.2154 71.3454 73.6724 70.8566L75.6137 71.9775C75.7079 72.0317 75.8139 72.0598 75.9208 72.0598C75.9739 72.0598 76.0278 72.0526 76.0798 72.0389C76.2372 71.9968 76.3713 71.8936 76.4525 71.7528L77.7116 69.5717C77.7928 69.4309 77.8151 69.263 77.7729 69.1056C77.7306 68.9488 77.6278 68.8143 77.4867 68.7329L75.5472 67.6136C75.7388 66.9835 75.8576 66.322 75.8935 65.6384L78.1005 65.2492C78.2611 65.221 78.4036 65.1302 78.4969 64.9966C78.5937 64.8628 78.6303 64.6979 78.602 64.5375ZM67.6169 68.4784C65.7515 68.4784 64.2389 66.9658 64.2389 65.1002C64.2389 63.2347 65.7517 61.7223 67.6169 61.7223C69.4824 61.7223 70.995 63.2347 70.995 65.1002C70.995 66.9658 69.4824 68.4784 67.6169 68.4784Z" fill="#D2D4DA"/>
<path d="M35.9293 47.7488C35.9293 46.9541 35.4636 46.2242 34.7427 45.8894L28.1448 42.8238L34.7429 39.7579C35.4636 39.4228 35.9293 38.693 35.9293 37.8987V37.8454C35.9293 37.1414 35.575 36.495 34.982 36.1173C34.6539 35.9077 34.2718 35.7969 33.8773 35.7969C33.58 35.7969 33.2815 35.8623 33.0144 35.9863L22.4662 40.8915C21.7457 41.2267 21.2803 41.9564 21.2803 42.7506V42.8972C21.2803 43.6904 21.7455 44.4197 22.4664 44.7564L33.0156 49.6621C33.2883 49.7884 33.5788 49.8525 33.8788 49.8525C34.2698 49.8525 34.6507 49.7414 34.982 49.5307C35.5753 49.1514 35.9295 48.5056 35.9295 47.8024L35.9293 47.7488Z" fill="#D2D4DA"/>
<path d="M46.3371 30.7987C45.9523 30.2719 45.3334 29.9575 44.6814 29.9575H44.6289C43.7336 29.9575 42.9486 30.5303 42.6759 31.3816L35.726 52.9155C35.5282 53.5372 35.6396 54.222 36.0239 54.7486C36.4086 55.275 37.0275 55.5896 37.6796 55.5896H37.7322C38.6272 55.5896 39.4117 55.0166 39.6841 54.1655L46.6331 32.6333C46.8328 32.012 46.7221 31.3263 46.3371 30.7987Z" fill="#D2D4DA"/>
<path d="M59.8934 40.8913L49.3451 35.9861C49.0788 35.8624 48.7808 35.797 48.4835 35.797C48.0892 35.797 47.7069 35.9075 47.379 36.1167C46.785 36.4952 46.4307 37.1413 46.4307 37.8453V37.8987C46.4307 38.6923 46.8961 39.4223 47.6175 39.7587L54.2151 42.8239L47.6173 45.8893C46.8964 46.2241 46.4307 46.9541 46.4307 47.7487V47.8024C46.4307 48.5056 46.785 49.1512 47.3787 49.5308C47.7088 49.7412 48.09 49.8524 48.4815 49.8524C48.7812 49.8524 49.0713 49.7884 49.3459 49.6616L59.8948 44.7559C60.615 44.4199 61.08 43.6905 61.08 42.8974V42.7507C61.0795 41.9564 60.6142 41.2266 59.8934 40.8913Z" fill="#D2D4DA"/>
</svg>
