<svg width="56" height="56" viewBox="0 0 56 56" fill="none" xmlns="http://www.w3.org/2000/svg">
<rect width="56" height="56" rx="8" fill="#E6F6FF"/>
<path d="M36.8839 33.978C35.2758 33.9407 33.8884 33.4199 32.7217 32.4156C31.5551 31.4104 30.8532 30.0641 30.6161 28.3766H26.3713L25.5257 26.9766H30.6161C30.6973 26.23 30.9582 25.4483 31.3987 24.6316C31.8393 23.815 32.4291 23.1789 33.1683 22.7234H23.0827L22.2385 21.3234H33.7773L31.5653 15.2656C31.4925 15.0864 31.3843 14.9474 31.2405 14.8484C31.0977 14.7495 30.9363 14.7 30.7561 14.7H26.9229V13.3H30.7561C31.2377 13.3 31.6671 13.4335 32.0441 13.7004C32.4203 13.9664 32.6956 14.3258 32.8701 14.7784L35.2711 21.3234H36.8839C38.6769 21.3234 40.1749 21.9338 41.3779 23.1546C42.5819 24.3773 43.1839 25.8846 43.1839 27.6766C43.1839 29.4164 42.5689 30.9013 41.3387 32.1314C40.1086 33.3616 38.6237 33.9766 36.8839 33.9766M36.8839 32.5766C38.2485 32.5766 39.4058 32.1011 40.3559 31.15C41.3079 30.198 41.7839 29.0407 41.7839 27.678C41.7839 26.278 41.3173 25.102 40.3839 24.15C39.4506 23.198 38.2839 22.722 36.8839 22.722C36.6637 22.722 36.4621 22.7407 36.2791 22.778C36.0971 22.8135 35.9319 22.849 35.7835 22.8844L37.2283 26.7638L35.9151 27.251L34.5305 23.387C33.7409 23.8024 33.1193 24.4156 32.6657 25.2266C32.2112 26.0386 31.9839 26.8553 31.9839 27.6766C31.9839 29.0412 32.4599 30.199 33.4119 31.15C34.363 32.102 35.5203 32.578 36.8839 32.578M22.0775 42.7519C21.1087 42.7519 20.2832 42.4112 19.6009 41.7298C18.9196 41.0476 18.5789 40.2216 18.5789 39.2519C18.5789 39.109 18.5873 38.9835 18.6041 38.8752C18.6228 38.7679 18.6499 38.6424 18.6853 38.4986H12.9775V32.2H15.7775V27.3H12.9775V25.9H21.6743L25.3353 32.2H28.2165C28.8428 32.2 29.3762 32.4203 29.8167 32.8608C30.2573 33.3014 30.4775 33.8348 30.4775 34.461V36.239C30.4775 36.8644 30.2573 37.3978 29.8167 37.8392C29.3762 38.2798 28.8428 38.5 28.2165 38.5H25.4697C25.5061 38.6438 25.5332 38.7698 25.5509 38.878C25.5696 38.9854 25.5789 39.1104 25.5789 39.2532C25.5789 40.223 25.2373 41.049 24.5541 41.7312C23.8728 42.4126 23.0473 42.7519 22.0775 42.7519ZM17.1775 32.2H23.7225L20.9071 27.3H17.1761L17.1775 32.2ZM22.0775 41.3532C22.6543 41.3532 23.1485 41.1479 23.5601 40.7372C23.9717 40.3247 24.1775 39.83 24.1775 39.2532C24.1775 38.6774 23.9717 38.1836 23.5601 37.772C23.1485 37.3595 22.6543 37.1532 22.0775 37.1532C21.5017 37.1532 21.0079 37.3595 20.5963 37.772C20.1838 38.1836 19.9775 38.6774 19.9775 39.2532C19.9775 39.83 20.1838 40.3247 20.5963 40.7372C21.007 41.1479 21.5007 41.3532 22.0775 41.3532Z" fill="#14A2F1"/>
</svg>
