<svg width="16" height="17" viewBox="0 0 16 17" fill="none" xmlns="http://www.w3.org/2000/svg">
<g clip-path="url(#clip0_256_1358)">
<path d="M5.026 15.5007C11.064 15.5007 14.367 10.4977 14.367 6.16669C14.367 6.02669 14.367 5.88469 14.361 5.74469C15.0041 5.27918 15.5591 4.70285 16 4.04269C15.3993 4.30754 14.7628 4.4821 14.111 4.56069C14.7975 4.15033 15.3117 3.50466 15.558 2.74369C14.913 3.12582 14.207 3.39407 13.471 3.53669C12.9762 3.00972 12.3214 2.66061 11.6081 2.54345C10.8948 2.42629 10.1627 2.54761 9.52534 2.88863C8.88796 3.22965 8.38081 3.77132 8.08245 4.42975C7.78409 5.08819 7.71118 5.82663 7.875 6.53069C6.56974 6.46525 5.29282 6.12616 4.12704 5.53544C2.96127 4.94471 1.93268 4.11554 1.108 3.10169C0.68934 3.82478 0.561574 4.68009 0.750646 5.49396C0.939718 6.30783 1.43145 7.01922 2.126 7.48369C1.60554 7.46601 1.09652 7.32625 0.64 7.07569V7.12069C0.640897 7.87817 0.903307 8.61211 1.38287 9.19845C1.86244 9.78479 2.52975 10.1876 3.272 10.3387C2.99026 10.4163 2.69923 10.455 2.407 10.4537C2.20098 10.4543 1.99538 10.4352 1.793 10.3967C2.00279 11.0488 2.41127 11.6189 2.96125 12.0272C3.51122 12.4355 4.17513 12.6615 4.86 12.6737C3.69656 13.5875 2.2594 14.0831 0.78 14.0807C0.519321 14.0818 0.258823 14.0668 0 14.0357C1.50151 14.993 3.2453 15.5012 5.026 15.5007Z" fill="black"/>
</g>
<defs>
<clipPath id="clip0_256_1358">
<rect width="16" height="16" fill="white" transform="translate(0 0.5)"/>
</clipPath>
</defs>
</svg>
