<svg width="57" height="57" viewBox="0 0 57 57" fill="none" xmlns="http://www.w3.org/2000/svg">
<g clip-path="url(#clip0_316_1022)">
<path fill-rule="evenodd" clip-rule="evenodd" d="M0 28.5L0 57H28.5L57 57V28.5L57 0L28.5 0H0L0 28.5Z" fill="#007ACC"/>
<path fill-rule="evenodd" clip-rule="evenodd" d="M12.6052 28.689L12.5871 31.0233H16.2967L20.0062 31.0233V41.5638V52.1042H22.63H25.2538V41.5638L25.2538 31.0233H28.9633H32.6729V28.7342C32.6729 27.4676 32.6457 26.409 32.6095 26.3819C32.5824 26.3457 28.0676 26.3276 22.5938 26.3366L12.6324 26.3638L12.6052 28.689Z" fill="white"/>
<path fill-rule="evenodd" clip-rule="evenodd" d="M45.9934 26.2975C47.441 26.6594 48.5448 27.3018 49.5582 28.3513C50.0829 28.9123 50.861 29.9347 50.9244 30.1789C50.9425 30.2513 48.4634 31.9161 46.9615 32.848C46.9072 32.8842 46.6901 32.6489 46.4458 32.287C45.7129 31.2194 44.9439 30.758 43.7677 30.6766C42.0396 30.5589 40.9267 31.4637 40.9358 32.9747C40.9358 33.418 40.9991 33.6804 41.1801 34.0423C41.5601 34.8294 42.2658 35.2999 44.4825 36.2589C48.5629 38.0142 50.3091 39.1723 51.3948 40.8189C52.6072 42.6556 52.8786 45.587 52.0553 47.7675C51.1505 50.138 48.9067 51.7485 45.7491 52.2823C44.772 52.4542 42.4558 52.427 41.4063 52.237C39.1172 51.8299 36.9458 50.6989 35.6067 49.2151C35.082 48.6361 34.0596 47.1251 34.1229 47.0166C34.1501 46.9804 34.3853 46.8356 34.6477 46.6818C34.901 46.537 35.8601 45.9851 36.7648 45.4604L38.4025 44.5104L38.7463 45.017C39.2258 45.7499 40.2753 46.7542 40.9086 47.0889C42.7272 48.048 45.2244 47.9123 46.4548 46.8085C46.9796 46.3289 47.1967 45.8313 47.1967 45.0985C47.1967 44.438 47.1153 44.1485 46.7715 43.6509C46.3282 43.0175 45.4234 42.4837 42.8539 41.3708C39.9134 40.1042 38.6467 39.317 37.4886 38.0685C36.8191 37.3447 36.1858 36.1866 35.9234 35.2185C35.7063 34.4132 35.652 32.3956 35.8239 31.5813C36.4301 28.7404 38.5744 26.7589 41.6686 26.1709C42.6729 25.9809 45.0072 26.0532 45.9934 26.2975Z" fill="white"/>
</g>
<defs>
<clipPath id="clip0_316_1022">
<rect width="57" height="57" fill="white"/>
</clipPath>
</defs>
</svg>
