<svg width="87" height="87" viewBox="0 0 87 87" fill="none" xmlns="http://www.w3.org/2000/svg">
<path d="M49.9616 70.1821C49.9616 70.5404 49.6674 70.8218 49.3219 70.8218H28.2244C27.879 70.8218 27.5847 70.5404 27.5847 70.1821C27.5847 69.8367 27.879 69.5424 28.2244 69.5424C29.5038 69.5424 30.4634 69.1458 31.1671 68.327C32.3825 66.9196 32.4977 64.5911 32.4465 63.1965H45.0999C45.0487 64.6039 45.1766 66.9324 46.3793 68.3398C47.083 69.1458 48.0425 69.5424 49.3219 69.5424C49.6674 69.5424 49.9616 69.8367 49.9616 70.1821ZM68.0653 9.02625H9.48103C6.01383 9.02625 3.21191 11.8282 3.21191 15.2954V55.648C3.21191 59.1152 6.01383 61.9171 9.48103 61.9171H49.3603V54.0743H9.48103C8.62383 54.0743 7.92015 53.3707 7.92015 52.5007V15.2954C7.92015 14.4254 8.62383 13.7217 9.48103 13.7217H68.0653C68.9225 13.7217 69.6262 14.4254 69.6262 15.2954V33.2583H74.3344V15.2954C74.3344 11.8282 71.5325 9.02625 68.0653 9.02625ZM38.7796 56.3261C39.6879 56.3261 40.43 57.0682 40.43 58.0021C40.43 58.9233 39.6879 59.6654 38.7796 59.6654C38.5601 59.6671 38.3424 59.6253 38.1391 59.5425C37.9359 59.4596 37.751 59.3374 37.5952 59.1828C37.4394 59.0282 37.3157 58.8442 37.2314 58.6416C37.147 58.439 37.1035 58.2216 37.1035 58.0021C37.1035 57.0682 37.8456 56.3261 38.7796 56.3261Z" fill="#D2D4DA"/>
<path d="M68.3464 15.2954V20.1699H9.19922V15.2954C9.19922 15.1418 9.32716 15.0011 9.48069 15.0011H68.065C68.2185 15.0011 68.3464 15.1418 68.3464 15.2954ZM39.9691 24.012H63.2122V25.2914H39.9691V24.012ZM34.4151 25.9311V31.6885C34.4151 32.0278 34.2804 32.3532 34.0404 32.5931C33.8005 32.8331 33.4751 32.9679 33.1357 32.9679H14.8018C14.4624 32.9679 14.137 32.8331 13.8971 32.5931C13.6571 32.3532 13.5224 32.0278 13.5224 31.6885V25.9311C13.5224 25.5918 13.6571 25.2664 13.8971 25.0264C14.137 24.7865 14.4624 24.6517 14.8018 24.6517H33.1357C33.4751 24.6517 33.8005 24.7865 34.0404 25.0264C34.2804 25.2664 34.4151 25.5918 34.4151 25.9311ZM39.9691 28.1701H63.2122V29.4495H39.9691V28.1701ZM39.9691 32.3282H47.2451V33.6076H39.9691V32.3282ZM45.2953 38.7252V49.2036C45.2953 49.5429 45.1605 49.8684 44.9205 50.1083C44.6806 50.3482 44.3552 50.483 44.0159 50.483H33.5247C33.1854 50.483 32.8599 50.3482 32.62 50.1083C32.3801 49.8684 32.2453 49.5429 32.2453 49.2036V38.7252C32.2453 38.3859 32.3801 38.0605 32.62 37.8206C32.8599 37.5806 33.1854 37.4458 33.5247 37.4458H44.0159C44.3552 37.4458 44.6806 37.5806 44.9205 37.8206C45.1605 38.0605 45.2953 38.3859 45.2953 38.7252ZM26.5685 38.7252V49.2036C26.5685 49.5429 26.4337 49.8684 26.1938 50.1083C25.9538 50.3482 25.6284 50.483 25.2891 50.483H14.7979C14.4586 50.483 14.1332 50.3482 13.8932 50.1083C13.6533 49.8684 13.5185 49.5429 13.5185 49.2036V38.7252C13.5185 38.3859 13.6533 38.0605 13.8932 37.8206C14.1332 37.5806 14.4586 37.4458 14.7979 37.4458H25.2891C25.6284 37.4458 25.9538 37.5806 26.1938 37.8206C26.4337 38.0605 26.5685 38.3859 26.5685 38.7252ZM79.9507 34.5377H54.4776C52.3666 34.5377 50.6394 36.2521 50.6394 38.376V74.1355C50.6394 76.2465 52.3666 77.9737 54.4776 77.9737H79.9507C82.0745 77.9737 83.7889 76.2465 83.7889 74.1355V38.376C83.7889 36.2521 82.0745 34.5377 79.9507 34.5377ZM66.5297 76.464C65.7748 76.464 65.1607 75.8499 65.1607 75.0951C65.1592 74.8221 65.2388 74.5549 65.3895 74.3274C65.5402 74.0998 65.7551 73.9222 66.007 73.817C66.2588 73.7119 66.5363 73.684 66.804 73.7369C67.0718 73.7897 67.3178 73.921 67.5108 74.114C67.7037 74.307 67.835 74.553 67.8879 74.8207C67.9408 75.0885 67.9128 75.3659 67.8077 75.6178C67.7026 75.8696 67.5249 76.0845 67.2974 76.2352C67.0698 76.3859 66.8026 76.4656 66.5297 76.464ZM80.9103 70.937C80.9103 71.6407 80.3473 72.2164 79.6308 72.2164H54.7975C54.0938 72.2164 53.518 71.6407 53.518 70.937V39.0157C53.518 38.2992 54.0938 37.7362 54.7975 37.7362H79.6308C80.3473 37.7362 80.9103 38.2992 80.9103 39.0157V70.937Z" fill="#D2D4DA"/>
<path d="M57.5136 47.9229H76.9223V59.9941H57.5136V47.9229ZM57.5136 41.2264H76.9223V44.4326H57.5136V41.2264ZM57.5098 67.0347H73.2721V68.3141H57.5098V67.0347ZM57.5098 63.1965H76.9184V64.4759H57.5098V63.1965Z" fill="#D2D4DA"/>
</svg>
