<svg width="87" height="87" viewBox="0 0 87 87" fill="none" xmlns="http://www.w3.org/2000/svg">
<path d="M51.568 63.0759H20.2202V18.1154H51.5595V21.4788H55.7717V17.1972C55.7745 13.164 52.463 9.86121 48.4326 9.86121H23.3526C19.3165 9.86121 16.0137 13.164 16.0137 17.1972V69.7999C16.0137 73.8389 19.3165 77.1388 23.3526 77.1388H48.4326C52.463 77.1388 55.7745 73.8389 55.7745 69.7999V62.9979H51.568V63.0759ZM35.8883 73.4665C34.029 73.4665 32.5278 71.9623 32.5278 70.1059C32.5278 68.2438 34.0291 66.7425 35.8883 66.7425C37.7504 66.7425 39.2547 68.2466 39.2547 70.1059C39.2547 71.9623 37.7506 73.4665 35.8883 73.4665Z" fill="#D2D4DA"/>
<path d="M33.2147 22.6278H23.8115V28.3616H33.2147V22.6278Z" fill="#D2D4DA"/>
<path d="M33.2147 37.3086H23.8115V43.0424H33.2147V37.3086Z" fill="#D2D4DA"/>
<path d="M33.2147 52.6737H23.8115V58.4046H33.2147V52.6737Z" fill="#D2D4DA"/>
<path d="M55.7006 25.4424C46.3546 25.4424 38.7695 33.0275 38.7695 42.3734C38.7695 51.7193 46.3546 59.3044 55.7006 59.3044C65.0465 59.3044 72.6316 51.7193 72.6316 42.3734C72.6316 33.0275 65.0465 25.4424 55.7006 25.4424ZM52.8561 46.6739C53.7027 47.5204 53.7027 48.9088 52.8561 49.7892C52.4159 50.2294 51.8741 50.4326 51.2985 50.4326C50.7228 50.4326 50.181 50.2294 49.7408 49.7892L43.8827 43.9311C43.0362 43.0845 43.0362 41.6962 43.8827 40.8158L49.7408 34.9576C50.5874 34.1111 51.9757 34.1111 52.8561 34.9576C53.7027 35.8042 53.7027 37.1925 52.8561 38.0729L48.5557 42.3734L52.8561 46.6739ZM67.4846 43.9311L61.6264 49.7892C61.1862 50.2294 60.6444 50.4326 60.0688 50.4326C59.4931 50.4326 58.9513 50.2294 58.5111 49.7892C57.6646 48.9426 57.6646 47.5543 58.5111 46.6739L62.8455 42.3734L58.545 38.0729C57.6984 37.2264 57.6984 35.838 58.545 34.9576C59.3915 34.1111 60.7799 34.1111 61.6603 34.9576L67.5184 40.8158C68.3311 41.6962 68.3311 43.0506 67.4846 43.9311Z" fill="#D2D4DA"/>
</svg>
